<svg width="37" height="37" viewBox="0 0 37 37" fill="none" xmlns="http://www.w3.org/2000/svg">
<path d="M19.3414 6.29741V6.29921C21.9892 6.29921 24.136 8.44406 24.136 11.0919C24.136 13.7397 21.9894 15.8865 19.3414 15.8865C16.6935 15.8865 14.5468 13.7399 14.5468 11.0919C14.5468 8.4442 16.6935 6.29741 19.3414 6.29741ZM32.7894 0V0.00180241H4.20882L4.20701 0.00360481H4.20521C1.88189 0.00360481 0.000187457 1.88711 0.000187457 4.21043V25.3507L6.99157 18.3593C7.81344 17.5374 8.89131 17.1264 9.96913 17.1264C11.0452 17.1264 12.123 17.5374 12.9449 18.3593C12.9485 18.3611 20.1744 25.5888 20.1744 25.5888L24.0586 21.7028C24.8823 20.8809 25.9583 20.4681 27.0361 20.4681C28.114 20.4681 29.1918 20.8809 30.0137 21.7028C30.0155 21.7046 33.1787 24.866 37 28.6891V4.21047C37 1.88535 35.1145 0 32.7894 0ZM27.036 22.3284V22.3302L27.0342 22.3284C26.434 22.3284 25.8338 22.5573 25.376 23.0151L25.3724 23.0187L21.49 26.9047L31.5871 37.0001H32.7893C35.1145 37.0001 36.9998 35.1147 36.9998 32.7896V31.3225L28.6998 23.017C28.2402 22.5574 27.638 22.3284 27.036 22.3284ZM9.96914 18.9849V18.9867H9.96553C9.36532 18.9867 8.76511 19.2156 8.30729 19.6735L0.00180241 27.9789L0 32.7897C0 35.1075 1.86731 36.9983 4.18158 37.0001C5.75326 37.0019 9.18518 37.0019 13.0099 37.0019C20.2753 37.0019 28.9541 37.0001 28.9541 37.0001L11.6311 19.6735C11.1715 19.2156 10.5693 18.9849 9.96914 18.9849Z" fill="#D4D4D4"/>
</svg>
