<svg width="84" height="84" viewBox="0 0 84 84" fill="none" xmlns="http://www.w3.org/2000/svg">
<path d="M83.7626 41.9851C83.7626 64.943 65.1571 83.548 42.1997 83.548C19.2422 83.548 0.636719 64.9425 0.636719 41.9851C0.636719 19.0276 19.2422 0.422119 42.1997 0.422119C65.1571 0.422119 83.7626 19.0276 83.7626 41.9851Z" fill="#72FFAA"/>
<path d="M77.4609 41.9674C77.4609 61.4419 61.6783 77.2242 42.2041 77.2242C22.7299 77.2242 6.94727 61.4416 6.94727 41.9674C6.94727 22.4932 22.7299 6.71057 42.2041 6.71057C61.6783 6.71057 77.4609 22.4932 77.4609 41.9674Z" fill="#5F24F5"/>
<path d="M20.2293 42.6668C21.8402 41.4046 23.1605 40.3168 24.1902 39.4034C25.2199 38.49 26.0835 37.5516 26.781 36.5884C27.4785 35.6086 27.8273 34.6785 27.8273 33.7983C27.8273 33.2669 27.7027 32.8517 27.4536 32.5528C27.2211 32.2538 26.8723 32.1044 26.4073 32.1044C25.9257 32.1044 25.552 32.3119 25.2863 32.7271C25.0206 33.1257 24.896 33.7153 24.9126 34.4958H20.1795C20.2293 33.0178 20.5532 31.7971 21.151 30.8339C21.7489 29.854 22.5295 29.1399 23.4927 28.6915C24.4559 28.2265 25.5271 27.994 26.7063 27.994C28.749 27.994 30.2686 28.5005 31.2651 29.5136C32.2615 30.5266 32.7597 31.8386 32.7597 33.4496C32.7597 35.1768 32.1785 36.796 31.0159 38.3073C29.87 39.8186 28.4335 41.1721 26.7063 42.3679H32.9341V46.3288H20.2293V42.6668ZM34.5617 37.2112C34.5617 34.3547 35.143 32.1044 36.3055 30.4602C37.4681 28.816 39.2949 27.994 41.786 27.994C44.2772 27.994 46.104 28.816 47.2666 30.4602C48.4457 32.1044 49.0353 34.3547 49.0353 37.2112C49.0353 40.1009 48.454 42.3679 47.2915 44.012C46.1289 45.6562 44.2938 46.4782 41.786 46.4782C39.2783 46.4782 37.4432 45.6562 36.2806 44.012C35.1347 42.3679 34.5617 40.1009 34.5617 37.2112ZM44.2024 37.2112C44.2024 35.7165 44.0447 34.5789 43.7291 33.7983C43.4136 33.0012 42.7659 32.6026 41.786 32.6026C40.8062 32.6026 40.1585 33.0012 39.843 33.7983C39.5274 34.5789 39.3696 35.7165 39.3696 37.2112C39.3696 38.7391 39.5191 39.9016 39.818 40.6988C40.1336 41.4793 40.7896 41.8696 41.786 41.8696C42.7825 41.8696 43.4302 41.4793 43.7291 40.6988C44.0447 39.9016 44.2024 38.7391 44.2024 37.2112ZM65.2831 41.4461C65.2831 42.3928 65.0257 43.2647 64.5109 44.0618C64.0127 44.8424 63.2736 45.4735 62.2938 45.9551C61.3305 46.4367 60.168 46.7024 58.8062 46.7523V48.7452H57.2368V46.7024C55.4099 46.5364 53.9152 45.98 52.7527 45.0334C51.6068 44.0867 51.0006 42.7997 50.9342 41.1721H56.1407C56.2071 42.0191 56.5725 42.5754 57.2368 42.8412V39.6525C55.8417 39.2705 54.7456 38.9218 53.9485 38.6062C53.1513 38.2741 52.4372 37.7426 51.8061 37.0119C51.1916 36.2812 50.8843 35.2847 50.8843 34.0225C50.8843 32.9763 51.1584 32.0711 51.7064 31.3072C52.2711 30.5266 53.035 29.9288 53.9983 29.5136C54.9615 29.0818 56.041 28.8327 57.2368 28.7662V26.7484H58.8062V28.7662C60.6496 28.8991 62.1111 29.4305 63.1906 30.3606C64.2867 31.2906 64.8929 32.5694 65.0091 34.1969H59.7528C59.6864 33.433 59.3708 32.9264 58.8062 32.6773V35.8411L59.429 36.0404C60.6247 36.3725 61.6129 36.7213 62.3934 37.0866C63.1906 37.4354 63.8715 37.9668 64.4362 38.681C65.0008 39.3785 65.2831 40.3002 65.2831 41.4461ZM56.0908 33.7983C56.0908 34.3962 56.4728 34.8861 57.2368 35.2681V32.5278C56.4728 32.6607 56.0908 33.0842 56.0908 33.7983ZM58.8062 42.9657C59.2048 42.8827 59.5203 42.7249 59.7528 42.4924C59.9853 42.2433 60.1016 41.9361 60.1016 41.5707C60.1016 40.9894 59.6698 40.5161 58.8062 40.1507V42.9657ZM22.3361 53.4141C22.9831 53.4141 23.5485 53.5452 24.0323 53.8075C24.5219 54.064 24.8978 54.4253 25.1601 54.8916C25.4224 55.3579 25.5536 55.8912 25.5536 56.4916C25.5536 57.0861 25.4195 57.6165 25.1514 58.0828C24.8891 58.5491 24.5131 58.9163 24.0235 59.1844C23.5398 59.4467 22.9773 59.5779 22.3361 59.5779H19.8968V53.4141H22.3361ZM22.205 58.0653C22.7063 58.0653 23.0997 57.9284 23.3853 57.6544C23.6709 57.3805 23.8137 56.9929 23.8137 56.4916C23.8137 55.9845 23.6709 55.594 23.3853 55.32C23.0997 55.0403 22.7063 54.9004 22.205 54.9004H21.6105V58.0653H22.205ZM28.0397 53.4141V59.5779H26.326V53.4141H28.0397ZM31.3412 59.6391C30.6242 59.6391 30.0355 59.4701 29.5751 59.132C29.1146 58.7881 28.8669 58.2985 28.8319 57.6632H30.6592C30.6767 57.8788 30.7408 58.0362 30.8516 58.1353C30.9623 58.2344 31.1051 58.2839 31.28 58.2839C31.4373 58.2839 31.5656 58.246 31.6647 58.1703C31.7696 58.0887 31.822 57.9779 31.822 57.838C31.822 57.6573 31.7375 57.5174 31.5685 57.4184C31.3995 57.3193 31.1255 57.2085 30.7466 57.0861C30.3445 56.9521 30.0181 56.8238 29.7674 56.7014C29.5226 56.5732 29.307 56.3896 29.1204 56.1506C28.9398 55.9058 28.8494 55.5882 28.8494 55.1976C28.8494 54.8013 28.9485 54.4632 29.1467 54.1834C29.3448 53.8978 29.6188 53.6822 29.9685 53.5365C30.3182 53.3907 30.7146 53.3179 31.1576 53.3179C31.8745 53.3179 32.4457 53.4869 32.8712 53.825C33.3025 54.1572 33.5328 54.6264 33.5619 55.2326H31.6996C31.6938 55.0461 31.6355 54.9062 31.5248 54.8129C31.4199 54.7197 31.2829 54.673 31.1139 54.673C30.9856 54.673 30.8807 54.7109 30.7991 54.7867C30.7175 54.8625 30.6767 54.9703 30.6767 55.1102C30.6767 55.2268 30.7204 55.3288 30.8078 55.4162C30.9011 55.4978 31.0148 55.5707 31.1488 55.6348C31.2829 55.6931 31.4811 55.7688 31.7433 55.8621C32.1339 55.9962 32.4544 56.1302 32.7051 56.2643C32.9615 56.3925 33.1801 56.5761 33.3608 56.8151C33.5473 57.0482 33.6406 57.3455 33.6406 57.7069C33.6406 58.0741 33.5473 58.4034 33.3608 58.6948C33.1801 58.9863 32.9149 59.2165 32.5652 59.3855C32.2213 59.5546 31.8133 59.6391 31.3412 59.6391ZM34.2274 56.4829C34.2274 55.8767 34.3527 55.3375 34.6033 54.8654C34.8598 54.3874 35.2212 54.0173 35.6875 53.755C36.1538 53.4869 36.69 53.3529 37.2962 53.3529C38.0656 53.3529 38.7126 53.5598 39.2371 53.9736C39.7617 54.3816 40.0998 54.9383 40.2513 55.6435H38.4066C38.2958 55.4104 38.1413 55.2326 37.9432 55.1102C37.7508 54.9878 37.5264 54.9266 37.27 54.9266C36.8736 54.9266 36.5559 55.0694 36.317 55.355C36.0838 55.6348 35.9673 56.0107 35.9673 56.4829C35.9673 56.9608 36.0838 57.3426 36.317 57.6282C36.5559 57.908 36.8736 58.0479 37.27 58.0479C37.5264 58.0479 37.7508 57.9867 37.9432 57.8642C38.1413 57.7418 38.2958 57.5641 38.4066 57.3309H40.2513C40.0998 58.0362 39.7617 58.5957 39.2371 59.0096C38.7126 59.4176 38.0656 59.6216 37.2962 59.6216C36.69 59.6216 36.1538 59.4905 35.6875 59.2282C35.2212 58.96 34.8598 58.5899 34.6033 58.1178C34.3527 57.6398 34.2274 57.0949 34.2274 56.4829ZM44.0179 59.6391C43.4409 59.6391 42.9105 59.505 42.4267 59.2369C41.9429 58.963 41.5582 58.587 41.2726 58.1091C40.9928 57.6253 40.853 57.0803 40.853 56.4741C40.853 55.8679 40.9928 55.3259 41.2726 54.8479C41.5582 54.3641 41.9429 53.9882 42.4267 53.7201C42.9105 53.4519 43.4409 53.3179 44.0179 53.3179C44.6008 53.3179 45.1312 53.4519 45.6092 53.7201C46.0929 53.9882 46.4747 54.3641 46.7545 54.8479C47.0343 55.3259 47.1742 55.8679 47.1742 56.4741C47.1742 57.0803 47.0343 57.6253 46.7545 58.1091C46.4747 58.587 46.0929 58.963 45.6092 59.2369C45.1254 59.505 44.595 59.6391 44.0179 59.6391ZM44.0179 58.0479C44.4551 58.0479 44.799 57.9051 45.0496 57.6194C45.3061 57.3338 45.4343 56.9521 45.4343 56.4741C45.4343 55.9845 45.3061 55.5998 45.0496 55.32C44.799 55.0344 44.4551 54.8916 44.0179 54.8916C43.575 54.8916 43.2281 55.0344 42.9775 55.32C42.7269 55.5998 42.6016 55.9845 42.6016 56.4741C42.6016 56.9579 42.7269 57.3426 42.9775 57.6282C43.2281 57.908 43.575 58.0479 44.0179 58.0479ZM49.6232 53.4141V56.9899C49.6232 57.3222 49.6989 57.5786 49.8505 57.7593C50.0079 57.94 50.2439 58.0304 50.5587 58.0304C50.8734 58.0304 51.1095 57.94 51.2668 57.7593C51.43 57.5728 51.5117 57.3164 51.5117 56.9899V53.4141H53.2253V56.9899C53.2253 57.5553 53.1058 58.0391 52.8668 58.4413C52.6278 58.8376 52.3014 59.1378 51.8876 59.3418C51.4796 59.54 51.025 59.6391 50.5237 59.6391C50.0224 59.6391 49.5736 59.54 49.1773 59.3418C48.7867 59.1378 48.4778 58.8376 48.2505 58.4413C48.029 58.0449 47.9183 57.5612 47.9183 56.9899V53.4141H49.6232ZM59.878 59.5779H58.1643L55.8824 56.1331V59.5779H54.1688V53.4141H55.8824L58.1643 56.9025V53.4141H59.878V59.5779ZM65.4967 53.4141V54.778H63.853V59.5779H62.1393V54.778H60.5131V53.4141H65.4967Z" fill="#72FFAA"/>
</svg>
