<svg xmlns="http://www.w3.org/2000/svg" xmlns:xlink="http://www.w3.org/1999/xlink" width="22" height="22" viewBox="0 0 22 22">
  <defs>
    <clipPath id="clip-path">
      <rect id="Background" width="22" height="22" fill="none"/>
    </clipPath>
  </defs>
  <g id="bx-moon" clip-path="url(#clip-path)">
    <path id="Shape" d="M9.163,18.05A9.16,9.16,0,0,1,0,8.881,9.138,9.138,0,0,1,6.795.032a.908.908,0,0,1,.886.237.92.92,0,0,1,.237.885A7.357,7.357,0,0,0,9.81,8.233a7.269,7.269,0,0,0,5.175,2.141,7.394,7.394,0,0,0,1.9-.248.894.894,0,0,1,.237-.032.918.918,0,0,1,.884,1.154,9.145,9.145,0,0,1-8.848,6.8ZM5.865,2.337A7.248,7.248,0,0,0,3.977,3.7a7.334,7.334,0,1,0,11.732,8.485c-.246.019-.49.028-.722.028A9.088,9.088,0,0,1,8.515,9.531,9.16,9.16,0,0,1,5.865,2.337Z" transform="translate(2.124 1.832)" fill="#495057"/>
  </g>
</svg>
