<svg width="33" height="35" viewBox="0 0 33 35" fill="none" xmlns="http://www.w3.org/2000/svg">
<path d="M31.7075 0.193634C32.4981 0.544259 33 1.32801 33 2.19426V30.7943C33 31.6605 32.4981 32.4443 31.7075 32.7949C30.9169 33.1455 30.0025 33.0149 29.3494 32.4443L26.1456 29.6461C23.1481 27.0268 19.36 25.5005 15.3931 25.3149V31.8943C15.3931 33.1111 14.41 34.0943 13.1931 34.0943H10.9931C9.77625 34.0943 8.79313 33.1111 8.79313 31.8943V25.2943C3.93937 25.2943 0 21.3549 0 16.4943C0 11.6336 3.93938 7.69426 8.8 7.69426H14.6094C18.8581 7.68051 22.9556 6.13363 26.1525 3.34238L29.3563 0.544259C30.0025 -0.0263663 30.9306 -0.156991 31.7144 0.193634H31.7075ZM15.4 20.8943V20.908C20.2331 21.0936 24.8738 22.8674 28.6 25.9543V7.02738C24.8738 10.1143 20.2331 11.888 15.4 12.0736V20.8943Z" fill="#1C1B1F"/>
</svg>
