<svg width="196" height="71" viewBox="0 0 196 71" fill="none" xmlns="http://www.w3.org/2000/svg">
<path d="M12.6427 31.5754C9.06272 31.5754 6.10289 30.7285 3.76321 29.0347C1.45173 27.3122 0.197322 24.8003 0 21.4989H9.97886C10.1198 23.2501 10.8809 24.1256 12.2622 24.1256C12.7696 24.1256 13.1924 24.0108 13.5307 23.7811C13.8971 23.5228 14.0803 23.1352 14.0803 22.6185C14.0803 21.9008 13.6998 21.3266 12.9387 20.896C12.1776 20.4367 10.9937 19.9199 9.38689 19.3458C7.47005 18.6568 5.87738 17.9821 4.60888 17.3218C3.36857 16.6616 2.29739 15.6998 1.39535 14.4367C0.493305 13.1735 0.0563777 11.5515 0.0845666 9.57068C0.0845666 7.58983 0.577872 5.91041 1.56448 4.53243C2.57928 3.12573 3.94644 2.06354 5.66596 1.34584C7.41367 0.628137 9.3728 0.269287 11.5433 0.269287C15.2079 0.269287 18.1113 1.13053 20.2537 2.85301C22.4242 4.57549 23.5659 7.00132 23.6786 10.1305H13.5729C13.5448 9.26925 13.3333 8.65203 12.9387 8.27882C12.544 7.90562 12.0648 7.71902 11.5011 7.71902C11.1064 7.71902 10.7822 7.86256 10.5285 8.14964C10.2748 8.40801 10.148 8.78121 10.148 9.26925C10.148 9.95824 10.5144 10.5324 11.2474 10.9917C12.0085 11.4224 13.2065 11.9534 14.8414 12.585C16.7301 13.3027 18.2805 13.9917 19.4926 14.652C20.7329 15.3123 21.8041 16.2309 22.7061 17.408C23.6082 18.585 24.0592 20.0635 24.0592 21.8434C24.0592 23.7094 23.6082 25.3888 22.7061 26.8816C21.8041 28.3457 20.4933 29.494 18.7738 30.3266C17.0543 31.1591 15.0106 31.5754 12.6427 31.5754Z" fill="black"/>
<path d="M51.8393 11.2501C51.8393 13.1735 51.4024 14.9247 50.5285 16.5037C49.6547 18.0539 48.358 19.2883 46.6385 20.207C44.9471 21.1257 42.8894 21.585 40.4651 21.585H36.7442V31.2739H27.3573V0.786032H40.4651C44.1297 0.786032 46.9345 1.7334 48.8795 3.62812C50.8527 5.52285 51.8393 8.06351 51.8393 11.2501ZM39.408 14.0491C41.3531 14.0491 42.3256 13.1161 42.3256 11.2501C42.3256 9.38408 41.3531 8.45107 39.408 8.45107H36.7442V14.0491H39.408Z" fill="black"/>
<path d="M69.4044 31.5754C66.5855 31.5754 63.9921 30.9007 61.6243 29.5515C59.2846 28.2022 57.4241 26.3362 56.0429 23.9534C54.6616 21.5706 53.971 18.8864 53.971 15.9008C53.971 12.9152 54.6616 10.231 56.0429 7.8482C57.4241 5.46544 59.2846 3.61377 61.6243 2.2932C63.9921 0.943925 66.5855 0.269287 69.4044 0.269287C72.2233 0.269287 74.8026 0.943925 77.1422 2.2932C79.4819 3.61377 81.3283 5.46544 82.6814 7.8482C84.0626 10.231 84.7532 12.9152 84.7532 15.9008C84.7532 18.8864 84.0626 21.5706 82.6814 23.9534C81.3283 26.3362 79.4678 28.2022 77.1 29.5515C74.7603 30.9007 72.1951 31.5754 69.4044 31.5754ZM69.4044 22.6615C71.2649 22.6615 72.7025 22.0587 73.7173 20.8529C74.7321 19.6185 75.2395 17.9678 75.2395 15.9008C75.2395 13.8051 74.7321 12.1544 73.7173 10.9487C72.7025 9.71422 71.2649 9.097 69.4044 9.097C67.5157 9.097 66.064 9.71422 65.0492 10.9487C64.0344 12.1544 63.527 13.8051 63.527 15.9008C63.527 17.9678 64.0344 19.6185 65.0492 20.8529C66.064 22.0587 67.5157 22.6615 69.4044 22.6615Z" fill="black"/>
<path d="M103.192 31.2739L97.5687 20.3362H97.5264V31.2739H88.1395V0.786032H102.093C104.517 0.786032 106.589 1.23101 108.309 2.12095C110.028 2.98219 111.311 4.17358 112.156 5.6951C113.03 7.18792 113.467 8.88169 113.467 10.7764C113.467 12.8147 112.903 14.6233 111.776 16.2022C110.677 17.7812 109.084 18.9151 106.998 19.6041L113.51 31.2739H103.192ZM97.5264 13.963H101.247C102.149 13.963 102.826 13.7621 103.277 13.3601C103.728 12.9295 103.953 12.2692 103.953 11.3793C103.953 10.5755 103.714 9.94389 103.235 9.48456C102.784 9.02523 102.121 8.79557 101.247 8.79557H97.5264V13.963Z" fill="black"/>
<path d="M139.976 0.786032V8.36495H132.026V31.2739H122.639V8.36495H114.775V0.786032H139.976Z" fill="black"/>
<path d="M21.5835 47.7053C21.1758 47.0346 20.5957 46.5236 19.843 46.1723C19.0904 45.7891 18.1809 45.5974 17.1147 45.5974C15.1076 45.5974 13.5553 46.2681 12.4577 47.6095C11.3601 48.919 10.8113 50.7234 10.8113 53.0229C10.8113 55.6738 11.4228 57.6539 12.6459 58.9634C13.8689 60.2728 15.7505 60.9275 18.2907 60.9275C20.7054 60.9275 22.6498 59.9375 24.1237 57.9573H15.7976V50.436H32.7791V61.0712C31.3365 63.5943 29.3451 65.7661 26.805 67.5865C24.2648 69.375 21.0504 70.2693 17.1617 70.2693C13.7121 70.2693 10.7016 69.5507 8.13002 68.1135C5.58985 66.6444 3.62985 64.6004 2.25 61.9815C0.901515 59.3626 0.227273 56.3764 0.227273 53.0229C0.227273 49.6695 0.901515 46.6833 2.25 44.0644C3.62985 41.4455 5.58985 39.4175 8.13002 37.9803C10.6702 36.5112 13.6494 35.7766 17.0677 35.7766C21.4267 35.7766 24.9704 36.8465 27.6987 38.9864C30.4584 41.1262 32.0891 44.0325 32.5909 47.7053H21.5835Z" fill="black"/>
<path d="M57.8963 64.9038H46.7948L45.1484 70.0298H34.1881L46.3715 36.112H58.4138L70.5501 70.0298H59.5427L57.8963 64.9038ZM55.3561 56.9034L52.3456 47.4658L49.335 56.9034H55.3561Z" fill="black"/>
<path d="M112.954 36.112V70.0298H102.558V53.1188L97.4306 70.0298H88.493L83.3656 53.1188V70.0298H72.9227V36.112H85.7176L93.0559 56.4722L100.206 36.112H112.954Z" fill="black"/>
<path d="M128.109 44.5914V48.7593H138.458V56.7597H128.109V61.5503H139.869V70.0298H117.666V36.112H139.869V44.5914H128.109Z" fill="black"/>
<path d="M170.884 69.6164C163.008 69.6164 156.496 67.7532 151.349 64.0269C146.264 60.2375 143.504 54.7112 143.07 47.448H165.023C165.333 51.3007 167.008 53.227 170.047 53.227C171.163 53.227 172.093 52.9743 172.837 52.4691C173.643 51.9006 174.047 51.048 174.047 49.9112C174.047 48.3322 173.209 47.0691 171.535 46.1217C169.86 45.1112 167.256 43.9744 163.721 42.7112C159.504 41.1954 156 39.7112 153.209 38.2586C150.481 36.806 148.124 34.6902 146.14 31.9113C144.155 29.1323 143.194 25.5639 143.256 21.206C143.256 16.8482 144.341 13.1534 146.512 10.1219C148.744 7.02715 151.752 4.69032 155.535 3.11138C159.38 1.53244 163.69 0.742968 168.465 0.742968C176.527 0.742968 182.915 2.6377 187.628 6.42715C192.403 10.2166 194.915 15.5534 195.163 22.4376H172.93C172.868 20.5429 172.403 19.185 171.535 18.3639C170.667 17.5429 169.612 17.1324 168.372 17.1324C167.504 17.1324 166.791 17.4482 166.233 18.0797C165.674 18.6482 165.395 19.4692 165.395 20.5429C165.395 22.0587 166.202 23.3218 167.814 24.3323C169.488 25.2797 172.124 26.4481 175.721 27.8376C179.876 29.4165 183.287 30.9323 185.953 32.3849C188.682 33.8376 191.039 35.8586 193.023 38.4481C195.008 41.0375 196 44.2902 196 48.2059C196 52.3112 195.008 56.0059 193.023 59.2901C191.039 62.5111 188.155 65.0374 184.372 66.869C180.589 68.7006 176.093 69.6164 170.884 69.6164Z" fill="black"/>
</svg>
