<svg width="34" height="30" viewBox="0 0 34 30" fill="none" xmlns="http://www.w3.org/2000/svg">
<path d="M32.7268 4.2361C33.6163 3.5271 33.7581 2.22512 33.0491 1.33565C32.3401 0.446183 31.0381 0.304384 30.1487 1.01338L21.0864 8.26449L14.1124 3.03725C13.3583 2.47005 12.3206 2.48938 11.5858 3.07592L1.27315 11.3261C0.383683 12.0351 0.241884 13.337 0.950881 14.2265C1.65988 15.116 2.96185 15.2578 3.85132 14.5488L12.9136 7.29767L19.8876 12.5249C20.6417 13.0921 21.6794 13.0728 22.4142 12.4862L32.7268 4.2361ZM10.8124 15V27.3752C10.8124 28.516 11.7341 29.4377 12.8749 29.4377C14.0158 29.4377 14.9375 28.516 14.9375 27.3752V15C14.9375 13.8591 14.0158 12.9374 12.8749 12.9374C11.7341 12.9374 10.8124 13.8591 10.8124 15ZM2.56224 21.1876V27.3752C2.56224 28.516 3.48393 29.4377 4.62478 29.4377C5.76562 29.4377 6.68731 28.516 6.68731 27.3752V21.1876C6.68731 20.0467 5.76562 19.125 4.62478 19.125C3.48393 19.125 2.56224 20.0467 2.56224 21.1876ZM21.1251 17.0625C19.9842 17.0625 19.0625 17.9842 19.0625 19.125V27.3752C19.0625 28.516 19.9842 29.4377 21.1251 29.4377C22.2659 29.4377 23.1876 28.516 23.1876 27.3752V19.125C23.1876 17.9842 22.2659 17.0625 21.1251 17.0625ZM27.3127 15V27.3752C27.3127 28.516 28.2344 29.4377 29.3752 29.4377C30.5161 29.4377 31.4378 28.516 31.4378 27.3752V15C31.4378 13.8591 30.5161 12.9374 29.3752 12.9374C28.2344 12.9374 27.3127 13.8591 27.3127 15Z" fill="#1C1B1F"/>
</svg>
