<svg width="35" height="29" viewBox="0 0 35 29" fill="none" xmlns="http://www.w3.org/2000/svg">
<path d="M28.7361 0.271432C28.6174 0.258935 28.4986 0.252686 28.3737 0.252686H22.9934L22.9309 0.315174L16.9945 6.25158H12.7515L18.7504 0.252686H12.9952L12.9327 0.315174L6.99634 6.25158H2.75337L8.75227 0.252686H4.37182C2.16598 0.252686 0.372559 2.04611 0.372559 4.25195V20.249C0.372559 22.4549 2.16598 24.2483 4.37182 24.2483H14.4575C13.7576 22.7236 13.3702 21.0364 13.3702 19.2492C13.3702 12.6254 18.7442 7.2514 25.368 7.2514C27.98 7.2514 30.3983 8.08875 32.3667 9.50099V4.25195C32.3667 3.30837 32.0355 2.43353 31.4918 1.75241L28.6361 4.60814C27.5863 4.37693 26.4928 4.25195 25.3742 4.25195C25.1618 4.25195 24.9493 4.2582 24.7368 4.26445L28.7298 0.265183L28.7361 0.271432ZM25.3742 28.2475C30.3421 28.2475 34.3726 24.217 34.3726 19.2492C34.3726 14.2814 30.3421 10.2508 25.3742 10.2508C20.4064 10.2508 16.3759 14.2814 16.3759 19.2492C16.3759 24.217 20.4064 28.2475 25.3742 28.2475ZM23.887 15.3937L28.8861 18.3931C29.186 18.5743 29.3735 18.8993 29.3735 19.2492C29.3735 19.5991 29.1923 19.9241 28.8861 20.1053L23.887 23.1047C23.5808 23.2922 23.1934 23.2922 22.8809 23.1172C22.5685 22.9423 22.3748 22.6111 22.3748 22.2486V16.2497C22.3748 15.8873 22.5685 15.5561 22.8809 15.3812C23.1934 15.2062 23.5808 15.2062 23.887 15.3937Z" fill="#1C1B1F"/>
</svg>
