<svg width="35" height="29" viewBox="0 0 35 29" fill="none" xmlns="http://www.w3.org/2000/svg">
<path d="M30.625 28.625H4.375C1.96191 28.625 0 26.6631 0 24.25V4.5625C0 2.14941 1.96191 0.1875 4.375 0.1875H13.8564C14.7998 0.1875 15.7227 0.495117 16.4814 1.0625L19.1064 3.03125C19.4824 3.31836 19.9473 3.46875 20.4189 3.46875H30.625C33.0381 3.46875 35 5.43066 35 7.84375V24.25C35 26.6631 33.0381 28.625 30.625 28.625ZM24.2402 14.9121C24.6162 14.6934 24.8076 14.2422 24.6504 13.8389C24.3633 13.0938 23.96 12.3965 23.4609 11.7812C23.1875 11.4395 22.7021 11.3779 22.3262 11.5967C21.0205 12.3486 19.4209 11.4258 19.4209 9.91504C19.4209 9.47754 19.127 9.08789 18.6963 9.02637C17.9238 8.90332 17.0967 8.90332 16.3174 9.02637C15.8867 9.09473 15.5928 9.48438 15.5928 9.91504C15.5928 11.4258 13.9932 12.3486 12.6875 11.5967C12.3115 11.3779 11.8262 11.4395 11.5527 11.7812C11.0537 12.3965 10.6504 13.1006 10.3633 13.8389C10.2061 14.249 10.3975 14.6934 10.7734 14.9121C12.0859 15.6709 12.0859 17.5166 10.7734 18.2686C10.3975 18.4873 10.2061 18.9385 10.3633 19.3418C10.6504 20.0869 11.0537 20.7842 11.5527 21.3994C11.8262 21.7412 12.3115 21.8027 12.6875 21.584C13.9932 20.832 15.5928 21.7549 15.5928 23.2656C15.5928 23.7031 15.8867 24.0928 16.3174 24.1543C17.0898 24.2773 17.917 24.2773 18.6963 24.1543C19.127 24.0859 19.4209 23.6963 19.4209 23.2656C19.4209 21.7549 21.0205 20.832 22.3262 21.584C22.7021 21.8027 23.1875 21.7412 23.4609 21.3994C23.96 20.7842 24.3633 20.0801 24.6504 19.3418C24.8076 18.9316 24.6162 18.4873 24.2402 18.2686C22.9346 17.5098 22.9346 15.6641 24.2402 14.9121ZM15.3125 16.5938C15.3125 15.3838 16.29 14.4062 17.5 14.4062C18.71 14.4062 19.6875 15.3838 19.6875 16.5938C19.6875 17.8037 18.71 18.7812 17.5 18.7812C16.29 18.7812 15.3125 17.8037 15.3125 16.5938Z" fill="#1C1B1F"/>
</svg>
