<svg width="229" height="68" viewBox="0 0 229 68" fill="none" xmlns="http://www.w3.org/2000/svg">
<path d="M15.9684 7.72226C15.9684 9.53472 15.3434 11.0451 14.0934 12.2534C12.8643 13.4409 10.9789 14.0346 8.43729 14.0346H4.24989V23.1282H1.4062V1.3474H8.43729C10.8956 1.3474 12.7601 1.94114 14.0309 3.12861C15.3226 4.31609 15.9684 5.8473 15.9684 7.72226ZM8.43729 11.6909C10.0206 11.6909 11.1872 11.3472 11.9372 10.6597C12.6872 9.97221 13.0622 8.99307 13.0622 7.72226C13.0622 5.03482 11.5206 3.6911 8.43729 3.6911H4.24989V11.6909H8.43729ZM22.3464 0.00368024V23.1282H19.5027V0.00368024H22.3464ZM26.1305 14.5034C26.1305 12.7534 26.4847 11.2222 27.193 9.90971C27.9013 8.57641 28.87 7.54518 30.0992 6.81603C31.3491 6.08688 32.7345 5.7223 34.2553 5.7223C35.7553 5.7223 37.0574 6.04521 38.1615 6.69103C39.2656 7.33685 40.0885 8.14933 40.6302 9.12848V6.00355H43.5051V23.1282H40.6302V19.9407C40.0677 20.9407 39.224 21.774 38.099 22.4407C36.9949 23.0865 35.7032 23.4094 34.2241 23.4094C32.7033 23.4094 31.3283 23.0344 30.0992 22.2844C28.87 21.5345 27.9013 20.4824 27.193 19.1283C26.4847 17.7741 26.1305 16.2325 26.1305 14.5034ZM40.6302 14.5346C40.6302 13.243 40.3698 12.118 39.849 11.1597C39.3281 10.2014 38.6198 9.47222 37.724 8.97223C36.849 8.45141 35.8803 8.191 34.8178 8.191C33.7553 8.191 32.7866 8.441 31.9116 8.94098C31.0367 9.44097 30.3388 10.1701 29.8179 11.1284C29.2971 12.0867 29.0367 13.2117 29.0367 14.5034C29.0367 15.8158 29.2971 16.9616 29.8179 17.9408C30.3388 18.8991 31.0367 19.6387 31.9116 20.1595C32.7866 20.6595 33.7553 20.9095 34.8178 20.9095C35.8803 20.9095 36.849 20.6595 37.724 20.1595C38.6198 19.6387 39.3281 18.8991 39.849 17.9408C40.3698 16.9616 40.6302 15.8263 40.6302 14.5346ZM63.0604 6.00355L52.7481 31.1905H49.8107L53.1856 22.9407L46.2795 6.00355H49.4357L54.8105 19.8782L60.1229 6.00355H63.0604ZM88.9997 6.00355L78.6875 31.1905H75.75L79.125 22.9407L72.2189 6.00355H75.375L80.7499 19.8782L86.0623 6.00355H88.9997ZM99.3269 23.4094C97.7228 23.4094 96.2645 23.0448 94.952 22.3157C93.6604 21.5865 92.6395 20.5553 91.8896 19.222C91.1604 17.8679 90.7958 16.3054 90.7958 14.5346C90.7958 12.7846 91.1708 11.243 91.9208 9.90971C92.6916 8.55558 93.7333 7.52435 95.0457 6.81603C96.3582 6.08688 97.8269 5.7223 99.4519 5.7223C101.077 5.7223 102.546 6.08688 103.858 6.81603C105.171 7.52435 106.202 8.54516 106.952 9.87846C107.723 11.2118 108.108 12.7638 108.108 14.5346C108.108 16.3054 107.712 17.8679 106.92 19.222C106.15 20.5553 105.098 21.5865 103.764 22.3157C102.431 23.0448 100.952 23.4094 99.3269 23.4094ZM99.3269 20.9095C100.348 20.9095 101.306 20.6699 102.202 20.1907C103.098 19.7116 103.816 18.9928 104.358 18.0345C104.921 17.0762 105.202 15.9096 105.202 14.5346C105.202 13.1596 104.931 11.993 104.389 11.0347C103.848 10.0764 103.139 9.36806 102.264 8.90973C101.389 8.43058 100.441 8.191 99.4206 8.191C98.379 8.191 97.4207 8.43058 96.5457 8.90973C95.6916 9.36806 95.0041 10.0764 94.4833 11.0347C93.9624 11.993 93.702 13.1596 93.702 14.5346C93.702 15.9304 93.952 17.1075 94.452 18.0658C94.9728 19.0241 95.6603 19.7428 96.5145 20.222C97.3686 20.6803 98.3061 20.9095 99.3269 20.9095ZM127.034 6.00355V23.1282H124.19V20.597C123.649 21.472 122.888 22.1594 121.909 22.6594C120.951 23.1386 119.888 23.3782 118.722 23.3782C117.388 23.3782 116.191 23.1073 115.128 22.5657C114.066 22.0032 113.222 21.1699 112.597 20.0657C111.993 18.9616 111.691 17.6179 111.691 16.0346V6.00355H114.503V15.6596C114.503 17.3471 114.93 18.6491 115.784 19.5658C116.638 20.4616 117.805 20.9095 119.284 20.9095C120.805 20.9095 122.003 20.4407 122.878 19.5033C123.753 18.5658 124.19 17.2012 124.19 15.4096V6.00355H127.034ZM134.679 8.78474C135.179 7.80559 135.887 7.04519 136.804 6.50354C137.742 5.96188 138.877 5.69106 140.21 5.69106V8.62849H139.46C136.273 8.62849 134.679 10.3576 134.679 13.8159V23.1282H131.835V6.00355H134.679V8.78474ZM154.668 9.19098C155.251 8.17017 156.105 7.33685 157.23 6.69103C158.355 6.04521 159.636 5.7223 161.074 5.7223C162.615 5.7223 164.001 6.08688 165.23 6.81603C166.459 7.54518 167.428 8.57641 168.136 9.90971C168.845 11.2222 169.199 12.7534 169.199 14.5034C169.199 16.2325 168.845 17.7741 168.136 19.1283C167.428 20.4824 166.449 21.5345 165.199 22.2844C163.97 23.0344 162.595 23.4094 161.074 23.4094C159.595 23.4094 158.293 23.0865 157.168 22.4407C156.064 21.7949 155.23 20.972 154.668 19.972V23.1282H151.824V0.00368024H154.668V9.19098ZM166.292 14.5034C166.292 13.2117 166.032 12.0867 165.511 11.1284C164.99 10.1701 164.282 9.44097 163.386 8.94098C162.511 8.441 161.543 8.191 160.48 8.191C159.438 8.191 158.47 8.45141 157.574 8.97223C156.699 9.47222 155.991 10.2118 155.449 11.1909C154.928 12.1492 154.668 13.2638 154.668 14.5346C154.668 15.8263 154.928 16.9616 155.449 17.9408C155.991 18.8991 156.699 19.6387 157.574 20.1595C158.47 20.6595 159.438 20.9095 160.48 20.9095C161.543 20.9095 162.511 20.6595 163.386 20.1595C164.282 19.6387 164.99 18.8991 165.511 17.9408C166.032 16.9616 166.292 15.8158 166.292 14.5034ZM188.566 13.9096C188.566 14.4513 188.535 15.0242 188.473 15.6283H174.785C174.89 17.3158 175.463 18.6387 176.504 19.597C177.567 20.5345 178.848 21.0032 180.348 21.0032C181.577 21.0032 182.598 20.722 183.41 20.1595C184.244 19.5762 184.827 18.8054 185.16 17.847H188.223C187.764 19.4928 186.848 20.8366 185.473 21.8782C184.098 22.899 182.389 23.4094 180.348 23.4094C178.723 23.4094 177.265 23.0448 175.973 22.3157C174.702 21.5865 173.702 20.5553 172.973 19.222C172.244 17.8679 171.879 16.3054 171.879 14.5346C171.879 12.7638 172.233 11.2118 172.942 9.87846C173.65 8.54516 174.64 7.52435 175.91 6.81603C177.202 6.08688 178.681 5.7223 180.348 5.7223C181.973 5.7223 183.41 6.07646 184.66 6.78478C185.91 7.4931 186.869 8.47224 187.535 9.72222C188.223 10.9514 188.566 12.3472 188.566 13.9096ZM185.629 13.3159C185.629 12.2326 185.389 11.3055 184.91 10.5347C184.431 9.74305 183.775 9.14931 182.942 8.75349C182.129 8.33683 181.223 8.1285 180.223 8.1285C178.785 8.1285 177.556 8.58683 176.535 9.50347C175.535 10.4201 174.963 11.6909 174.817 13.3159H185.629ZM198.382 23.4094C197.07 23.4094 195.893 23.1907 194.851 22.7532C193.81 22.2949 192.987 21.6699 192.382 20.8782C191.778 20.0657 191.445 19.1387 191.383 18.097H194.32C194.403 18.9512 194.799 19.6491 195.507 20.1907C196.237 20.7324 197.184 21.0032 198.351 21.0032C199.434 21.0032 200.289 20.7636 200.914 20.2845C201.539 19.8053 201.851 19.2012 201.851 18.472C201.851 17.722 201.518 17.17 200.851 16.8158C200.184 16.4408 199.153 16.0762 197.757 15.7221C196.487 15.3888 195.445 15.0554 194.632 14.7221C193.841 14.3679 193.153 13.8575 192.57 13.1909C192.007 12.5034 191.726 11.6076 191.726 10.5035C191.726 9.62847 191.987 8.8264 192.507 8.09725C193.028 7.3681 193.768 6.7952 194.726 6.37854C195.684 5.94105 196.778 5.7223 198.007 5.7223C199.903 5.7223 201.434 6.20146 202.601 7.15977C203.768 8.11808 204.393 9.43056 204.476 11.0972H201.632C201.57 10.2014 201.205 9.48264 200.539 8.94098C199.893 8.39933 199.018 8.1285 197.914 8.1285C196.893 8.1285 196.08 8.34725 195.476 8.78474C194.872 9.22223 194.57 9.79513 194.57 10.5035C194.57 11.0659 194.747 11.5347 195.101 11.9097C195.476 12.2638 195.934 12.5555 196.476 12.7846C197.039 12.993 197.809 13.2326 198.789 13.5034C200.018 13.8367 201.018 14.17 201.789 14.5034C202.559 14.8159 203.216 15.295 203.757 15.9408C204.32 16.5867 204.611 17.4304 204.632 18.472C204.632 19.4095 204.372 20.2532 203.851 21.0032C203.33 21.7532 202.591 22.3469 201.632 22.7844C200.695 23.2011 199.611 23.4094 198.382 23.4094ZM212.115 8.34725V18.4408C212.115 19.2741 212.292 19.8678 212.646 20.222C213.001 20.5553 213.615 20.722 214.49 20.722H216.584V23.1282H214.021C212.438 23.1282 211.251 22.7636 210.459 22.0344C209.667 21.3053 209.272 20.1074 209.272 18.4408V8.34725H207.053V6.00355H209.272V1.69114H212.115V6.00355H216.584V8.34725H212.115ZM8.46854 41.7223C9.94768 41.7223 11.2393 42.0452 12.3435 42.691C13.4684 43.3369 14.3017 44.1493 14.8434 45.1285V42.0035H17.7183V59.5032C17.7183 61.0656 17.385 62.451 16.7184 63.6593C16.0517 64.8885 15.0934 65.8468 13.8434 66.5343C12.6143 67.2217 11.1768 67.5655 9.53102 67.5655C7.28107 67.5655 5.40611 67.0343 3.90614 65.9718C2.40618 64.9093 1.52078 63.4614 1.24995 61.6281H4.06239C4.37488 62.6698 5.0207 63.5031 5.99985 64.1281C6.97899 64.7739 8.15605 65.0968 9.53102 65.0968C11.0935 65.0968 12.3643 64.6072 13.3434 63.6281C14.3434 62.6489 14.8434 61.274 14.8434 59.5032V55.9095C14.2809 56.9095 13.4476 57.7428 12.3435 58.4094C11.2393 59.0761 9.94768 59.4094 8.46854 59.4094C6.94774 59.4094 5.56236 59.0344 4.31238 58.2844C3.08324 57.5345 2.11452 56.4824 1.4062 55.1283C0.69788 53.7741 0.343721 52.2325 0.343721 50.5034C0.343721 48.7534 0.69788 47.2222 1.4062 45.9097C2.11452 44.5764 3.08324 43.5452 4.31238 42.816C5.56236 42.0869 6.94774 41.7223 8.46854 41.7223ZM14.8434 50.5346C14.8434 49.243 14.583 48.118 14.0622 47.1597C13.5413 46.2014 12.833 45.4722 11.9372 44.9722C11.0622 44.4514 10.0935 44.191 9.03103 44.191C7.96855 44.191 6.99983 44.441 6.12484 44.941C5.24986 45.441 4.55196 46.1701 4.03114 47.1284C3.51032 48.0867 3.24991 49.2117 3.24991 50.5034C3.24991 51.8158 3.51032 52.9616 4.03114 53.9408C4.55196 54.8991 5.24986 55.6387 6.12484 56.1595C6.99983 56.6595 7.96855 56.9095 9.03103 56.9095C10.0935 56.9095 11.0622 56.6595 11.9372 56.1595C12.833 55.6387 13.5413 54.8991 14.0622 53.9408C14.583 52.9616 14.8434 51.8263 14.8434 50.5346ZM21.4614 50.5034C21.4614 48.7534 21.8156 47.2222 22.5239 45.9097C23.2322 44.5764 24.2009 43.5452 25.4301 42.816C26.6801 42.0869 28.0654 41.7223 29.5862 41.7223C31.0862 41.7223 32.3883 42.0452 33.4924 42.691C34.5966 43.3369 35.4194 44.1493 35.9611 45.1285V42.0035H38.836V59.1282H35.9611V55.9407C35.3986 56.9407 34.5549 57.774 33.4299 58.4407C32.3258 59.0865 31.0341 59.4094 29.555 59.4094C28.0342 59.4094 26.6592 59.0344 25.4301 58.2844C24.2009 57.5345 23.2322 56.4824 22.5239 55.1283C21.8156 53.7741 21.4614 52.2325 21.4614 50.5034ZM35.9611 50.5346C35.9611 49.243 35.7007 48.118 35.1799 47.1597C34.659 46.2014 33.9507 45.4722 33.0549 44.9722C32.1799 44.4514 31.2112 44.191 30.1487 44.191C29.0863 44.191 28.1175 44.441 27.2425 44.941C26.3676 45.441 25.6697 46.1701 25.1488 47.1284C24.628 48.0867 24.3676 49.2117 24.3676 50.5034C24.3676 51.8158 24.628 52.9616 25.1488 53.9408C25.6697 54.8991 26.3676 55.6387 27.2425 56.1595C28.1175 56.6595 29.0863 56.9095 30.1487 56.9095C31.2112 56.9095 32.1799 56.6595 33.0549 56.1595C33.9507 55.6387 34.659 54.8991 35.1799 53.9408C35.7007 52.9616 35.9611 51.8263 35.9611 50.5346ZM64.2349 41.6911C65.5682 41.6911 66.7557 41.9723 67.7973 42.5348C68.839 43.0764 69.6619 43.8993 70.266 45.0035C70.8702 46.1076 71.1722 47.4513 71.1722 49.0346V59.1282H68.3598V49.4409C68.3598 47.7326 67.9327 46.4305 67.0786 45.5347C66.2453 44.6181 65.1099 44.1598 63.6724 44.1598C62.1933 44.1598 61.0162 44.6389 60.1412 45.5972C59.2663 46.5347 58.8288 47.8993 58.8288 49.6909V59.1282H56.0163V49.4409C56.0163 47.7326 55.5893 46.4305 54.7351 45.5347C53.9018 44.6181 52.7664 44.1598 51.3289 44.1598C49.8498 44.1598 48.6727 44.6389 47.7978 45.5972C46.9228 46.5347 46.4853 47.8993 46.4853 49.6909V59.1282H43.6416V42.0035H46.4853V44.4722C47.0478 43.5764 47.7978 42.8889 48.7352 42.4098C49.6935 41.9306 50.7456 41.6911 51.8914 41.6911C53.3289 41.6911 54.5997 42.014 55.7038 42.6598C56.808 43.3056 57.6309 44.2535 58.1725 45.5035C58.6517 44.2952 59.4433 43.3577 60.5475 42.691C61.6516 42.0244 62.8808 41.6911 64.2349 41.6911ZM91.4616 49.9096C91.4616 50.4513 91.4303 51.0242 91.3678 51.6283H77.6806C77.7848 53.3158 78.3577 54.6387 79.3994 55.597C80.4618 56.5345 81.7431 57.0032 83.243 57.0032C84.4722 57.0032 85.493 56.722 86.3055 56.1595C87.1388 55.5762 87.7221 54.8054 88.0554 53.847H91.1179C90.6595 55.4928 89.7429 56.8366 88.3679 57.8782C86.9929 58.899 85.2846 59.4094 83.243 59.4094C81.6181 59.4094 80.1598 59.0448 78.8681 58.3157C77.5973 57.5865 76.5973 56.5553 75.8682 55.222C75.139 53.8679 74.7745 52.3054 74.7745 50.5346C74.7745 48.7638 75.1286 47.2118 75.8369 45.8785C76.5453 44.5452 77.5348 43.5243 78.8056 42.816C80.0973 42.0869 81.5764 41.7223 83.243 41.7223C84.868 41.7223 86.3055 42.0765 87.5554 42.7848C88.8054 43.4931 89.7637 44.4722 90.4304 45.7222C91.1179 46.9514 91.4616 48.3472 91.4616 49.9096ZM88.5242 49.3159C88.5242 48.2326 88.2846 47.3055 87.8054 46.5347C87.3263 45.743 86.67 45.1493 85.8367 44.7535C85.0242 44.3368 84.118 44.1285 83.118 44.1285C81.6806 44.1285 80.4514 44.5868 79.4306 45.5035C78.4306 46.4201 77.8577 47.6909 77.7119 49.3159H88.5242ZM101.89 50.3471C101.89 48.5347 102.213 46.9514 102.859 45.5972C103.525 44.2431 104.421 43.2014 105.546 42.4723C106.692 41.7431 107.963 41.3786 109.359 41.3786C110.567 41.3786 111.609 41.6181 112.484 42.0973C113.359 42.5765 114.036 43.2223 114.515 44.0348V41.5973H120.64V59.1282H114.515V56.6907C114.036 57.5032 113.348 58.149 112.452 58.6282C111.577 59.1073 110.546 59.3469 109.359 59.3469C107.963 59.3469 106.692 58.9823 105.546 58.2532C104.421 57.524 103.525 56.4824 102.859 55.1283C102.213 53.7533 101.89 52.1596 101.89 50.3471ZM114.515 50.3471C114.515 49.2221 114.202 48.3367 113.577 47.6909C112.973 47.0451 112.223 46.7222 111.327 46.7222C110.411 46.7222 109.65 47.0451 109.046 47.6909C108.442 48.3159 108.14 49.2013 108.14 50.3471C108.14 51.4721 108.442 52.3679 109.046 53.0346C109.65 53.6804 110.411 54.0033 111.327 54.0033C112.223 54.0033 112.973 53.6804 113.577 53.0346C114.202 52.3887 114.515 51.4929 114.515 50.3471ZM135.598 41.4411C137.619 41.4411 139.223 42.1181 140.411 43.4723C141.598 44.8056 142.192 46.618 142.192 48.9096V59.1282H136.067V49.7221C136.067 48.7222 135.807 47.9409 135.286 47.3784C134.765 46.7951 134.067 46.5035 133.192 46.5035C132.275 46.5035 131.557 46.7951 131.036 47.3784C130.515 47.9409 130.255 48.7222 130.255 49.7221V59.1282H124.13V41.5973H130.255V44.0973C130.796 43.3056 131.525 42.6702 132.442 42.191C133.359 41.6911 134.411 41.4411 135.598 41.4411ZM144.553 50.3471C144.553 48.5347 144.876 46.9514 145.521 45.5972C146.188 44.2431 147.094 43.2014 148.24 42.4723C149.386 41.7431 150.657 41.3786 152.053 41.3786C153.178 41.3786 154.178 41.6181 155.052 42.0973C155.948 42.5556 156.646 43.191 157.146 44.0035V36.0037H163.302V59.1282H157.146V56.6907C156.667 57.5032 155.99 58.149 155.115 58.6282C154.24 59.1073 153.209 59.3469 152.021 59.3469C150.626 59.3469 149.355 58.9823 148.209 58.2532C147.084 57.524 146.188 56.4824 145.521 55.1283C144.876 53.7533 144.553 52.1596 144.553 50.3471ZM157.177 50.3471C157.177 49.2221 156.865 48.3367 156.24 47.6909C155.636 47.0451 154.886 46.7222 153.99 46.7222C153.073 46.7222 152.313 47.0451 151.709 47.6909C151.105 48.3159 150.803 49.2013 150.803 50.3471C150.803 51.4721 151.105 52.3679 151.709 53.0346C152.313 53.6804 153.073 54.0033 153.99 54.0033C154.886 54.0033 155.636 53.6804 156.24 53.0346C156.865 52.3887 157.177 51.4929 157.177 50.3471ZM198.679 41.5973L194.211 59.1282H187.336L184.899 48.5034L182.367 59.1282H175.524L171.086 41.5973H177.18L179.149 53.2221L181.742 41.5973H188.305L190.992 53.2533L192.93 41.5973H198.679ZM203.516 39.9723C202.432 39.9723 201.557 39.6807 200.891 39.0974C200.245 38.4932 199.922 37.7432 199.922 36.8474C199.922 35.9308 200.245 35.1704 200.891 34.5662C201.557 33.9621 202.432 33.66 203.516 33.66C204.578 33.66 205.432 33.9621 206.078 34.5662C206.745 35.1704 207.078 35.9308 207.078 36.8474C207.078 37.7432 206.745 38.4932 206.078 39.0974C205.432 39.6807 204.578 39.9723 203.516 39.9723ZM206.547 41.5973V59.1282H200.422V41.5973H206.547ZM221.503 41.4411C223.524 41.4411 225.128 42.1181 226.316 43.4723C227.503 44.8056 228.097 46.618 228.097 48.9096V59.1282H221.972V49.7221C221.972 48.7222 221.712 47.9409 221.191 47.3784C220.67 46.7951 219.972 46.5035 219.097 46.5035C218.181 46.5035 217.462 46.7951 216.941 47.3784C216.42 47.9409 216.16 48.7222 216.16 49.7221V59.1282H210.035V41.5973H216.16V44.0973C216.701 43.3056 217.431 42.6702 218.347 42.191C219.264 41.6911 220.316 41.4411 221.503 41.4411Z" fill="#5F24F5"/>
</svg>
