<svg width="116" height="66" viewBox="0 0 116 66" fill="none" xmlns="http://www.w3.org/2000/svg">
<path d="M11.5768 5.70396C11.5768 6.94052 11.1504 7.97099 10.2976 8.79536C9.45897 9.60552 8.17267 10.0106 6.43864 10.0106H3.58176V16.2147H1.64164V1.35468H6.43864C8.11581 1.35468 9.38791 1.75976 10.2549 2.56992C11.1361 3.38008 11.5768 4.42476 11.5768 5.70396ZM6.43864 8.4116C7.51885 8.4116 8.3148 8.17708 8.82648 7.70804C9.33816 7.239 9.594 6.57097 9.594 5.70396C9.594 3.87044 8.54221 2.95368 6.43864 2.95368H3.58176V8.4116H6.43864ZM15.9282 0.437922V16.2147H13.9881V0.437922H15.9282ZM18.5099 10.3304C18.5099 9.13648 18.7516 8.0918 19.2348 7.19636C19.7181 6.28671 20.379 5.58315 21.2176 5.08568C22.0704 4.58821 23.0156 4.33948 24.0531 4.33948C25.0765 4.33948 25.9648 4.55979 26.7181 5.0004C27.4714 5.44101 28.0329 5.99533 28.4024 6.66336V4.53136H30.3638V16.2147H28.4024V14.0401C28.0186 14.7223 27.443 15.2909 26.6755 15.7457C25.9222 16.1863 25.041 16.4066 24.0318 16.4066C22.9942 16.4066 22.0562 16.1508 21.2176 15.6391C20.379 15.1274 19.7181 14.4096 19.2348 13.4858C18.7516 12.5619 18.5099 11.5101 18.5099 10.3304ZM28.4024 10.3517C28.4024 9.47049 28.2247 8.70297 27.8694 8.04916C27.5141 7.39535 27.0308 6.89788 26.4196 6.55676C25.8227 6.20143 25.1618 6.02376 24.4369 6.02376C23.712 6.02376 23.0511 6.19432 22.4541 6.53544C21.8572 6.87656 21.381 7.37403 21.0257 8.02784C20.6704 8.68165 20.4927 9.44917 20.4927 10.3304C20.4927 11.2258 20.6704 12.0076 21.0257 12.6756C21.381 13.3294 21.8572 13.834 22.4541 14.1893C23.0511 14.5304 23.712 14.701 24.4369 14.701C25.1618 14.701 25.8227 14.5304 26.4196 14.1893C27.0308 13.834 27.5141 13.3294 27.8694 12.6756C28.2247 12.0076 28.4024 11.2329 28.4024 10.3517ZM43.7055 4.53136L36.6699 21.7153H34.6658L36.9684 16.0868L32.2567 4.53136H34.41L38.077 13.9974L41.7014 4.53136H43.7055ZM61.4028 4.53136L54.3672 21.7153H52.3631L54.6656 16.0868L49.9539 4.53136H52.1072L55.7743 13.9974L59.3987 4.53136H61.4028ZM68.4485 16.4066C67.3541 16.4066 66.3592 16.1579 65.4637 15.6604C64.5825 15.1629 63.886 14.4594 63.3744 13.5497C62.8769 12.6259 62.6282 11.5599 62.6282 10.3517C62.6282 9.1578 62.884 8.10601 63.3957 7.19636C63.9216 6.27249 64.6322 5.56893 65.5277 5.08568C66.4231 4.58821 67.4252 4.33948 68.5338 4.33948C69.6424 4.33948 70.6445 4.58821 71.5399 5.08568C72.4354 5.56893 73.1389 6.26539 73.6506 7.17504C74.1765 8.08469 74.4394 9.14359 74.4394 10.3517C74.4394 11.5599 74.1694 12.6259 73.6293 13.5497C73.1034 14.4594 72.3856 15.1629 71.476 15.6604C70.5663 16.1579 69.5572 16.4066 68.4485 16.4066ZM68.4485 14.701C69.145 14.701 69.7988 14.5375 70.41 14.2106C71.0211 13.8837 71.5115 13.3934 71.881 12.7396C72.2648 12.0857 72.4567 11.2898 72.4567 10.3517C72.4567 9.41364 72.2719 8.61769 71.9024 7.96388C71.5328 7.31007 71.0496 6.82681 70.4526 6.51412C69.8556 6.18721 69.2089 6.02376 68.5125 6.02376C67.8018 6.02376 67.148 6.18721 66.551 6.51412C65.9683 6.82681 65.4993 7.31007 65.1439 7.96388C64.7886 8.61769 64.6109 9.41364 64.6109 10.3517C64.6109 11.304 64.7815 12.1071 65.1226 12.7609C65.4779 13.4147 65.947 13.9051 66.5297 14.232C67.1125 14.5447 67.7521 14.701 68.4485 14.701ZM87.3519 4.53136V16.2147H85.4117V14.4878C85.0422 15.0848 84.5234 15.5538 83.8554 15.8949C83.2016 16.2218 82.4767 16.3853 81.6807 16.3853C80.7711 16.3853 79.9538 16.2005 79.2289 15.831C78.5041 15.4472 77.9284 14.8787 77.502 14.1254C77.0898 13.3721 76.8837 12.4553 76.8837 11.3751V4.53136H78.8025V11.1192C78.8025 12.2705 79.0939 13.1589 79.6767 13.7842C80.2594 14.3954 81.0554 14.701 82.0645 14.701C83.1021 14.701 83.9193 14.3812 84.5163 13.7416C85.1133 13.102 85.4117 12.171 85.4117 10.9487V4.53136H87.3519ZM92.5678 6.42884C92.9089 5.76081 93.3921 5.24203 94.0175 4.87248C94.6571 4.50293 95.4318 4.31816 96.3414 4.31816V6.32224H95.8297C93.6551 6.32224 92.5678 7.50195 92.5678 9.86136V16.2147H90.6277V4.53136H92.5678V6.42884ZM3.58176 31.706C3.97973 31.0095 4.56248 30.441 5.33 30.0004C6.09752 29.5598 6.97164 29.3395 7.95236 29.3395C9.00415 29.3395 9.94933 29.5882 10.7879 30.0857C11.6265 30.5831 12.2874 31.2867 12.7707 32.1964C13.2539 33.0918 13.4956 34.1365 13.4956 35.3304C13.4956 36.5101 13.2539 37.5619 12.7707 38.4858C12.2874 39.4096 11.6194 40.1274 10.7666 40.6391C9.92801 41.1508 8.98993 41.4066 7.95236 41.4066C6.94321 41.4066 6.05488 41.1863 5.28736 40.7457C4.53405 40.3051 3.96552 39.7436 3.58176 39.0614V41.2147H1.64164V25.4379H3.58176V31.706ZM11.5128 35.3304C11.5128 34.4492 11.3351 33.6817 10.9798 33.0278C10.6245 32.374 10.1412 31.8766 9.53004 31.5354C8.93308 31.1943 8.27216 31.0238 7.54728 31.0238C6.83661 31.0238 6.17569 31.2014 5.56452 31.5568C4.96756 31.8979 4.48431 32.4025 4.11476 33.0705C3.75943 33.7243 3.58176 34.4847 3.58176 35.3517C3.58176 36.2329 3.75943 37.0076 4.11476 37.6756C4.48431 38.3294 4.96756 38.834 5.56452 39.1893C6.17569 39.5304 6.83661 39.701 7.54728 39.701C8.27216 39.701 8.93308 39.5304 9.53004 39.1893C10.1412 38.834 10.6245 38.3294 10.9798 37.6756C11.3351 37.0076 11.5128 36.2258 11.5128 35.3304ZM26.7093 34.9253C26.7093 35.2949 26.688 35.6857 26.6453 36.0979H17.3072C17.3782 37.2492 17.7691 38.1517 18.4798 38.8056C19.2047 39.4452 20.0788 39.765 21.1021 39.765C21.9407 39.765 22.6372 39.5731 23.1915 39.1893C23.76 38.7913 24.158 38.2655 24.3854 37.6116H26.4748C26.1621 38.7345 25.5367 39.6513 24.5986 40.3619C23.6605 41.0584 22.495 41.4066 21.1021 41.4066C19.9935 41.4066 18.9986 41.1579 18.1173 40.6604C17.2503 40.1629 16.5681 39.4594 16.0706 38.5497C15.5731 37.6259 15.3244 36.5599 15.3244 35.3517C15.3244 34.1436 15.566 33.0847 16.0493 32.175C16.5325 31.2654 17.2077 30.5689 18.0747 30.0857C18.9559 29.5882 19.9651 29.3395 21.1021 29.3395C22.2108 29.3395 23.1915 29.5811 24.0443 30.0644C24.8971 30.5476 25.5509 31.2156 26.0057 32.0684C26.4748 32.907 26.7093 33.8593 26.7093 34.9253ZM24.7052 34.5202C24.7052 33.7811 24.5418 33.1487 24.2149 32.6228C23.8879 32.0827 23.4402 31.6776 22.8717 31.4075C22.3174 31.1233 21.6991 30.9811 21.0169 30.9811C20.0361 30.9811 19.1975 31.2938 18.5011 31.9192C17.8189 32.5446 17.428 33.4116 17.3285 34.5202H24.7052ZM33.4063 41.4066C32.5108 41.4066 31.7078 41.2574 30.9971 40.9589C30.2864 40.6462 29.725 40.2198 29.3128 39.6797C28.9006 39.1254 28.6732 38.4929 28.6306 37.7822H30.6347C30.6915 38.3649 30.9616 38.8411 31.4448 39.2106C31.9423 39.5802 32.589 39.765 33.385 39.765C34.124 39.765 34.7068 39.6015 35.1332 39.2746C35.5596 38.9477 35.7728 38.5355 35.7728 38.038C35.7728 37.5264 35.5454 37.1497 35.0906 36.9081C34.6357 36.6522 33.9322 36.4035 32.9799 36.1619C32.1129 35.9345 31.4022 35.7071 30.8479 35.4796C30.3078 35.238 29.8387 34.8898 29.4408 34.435C29.057 33.9659 28.8651 33.3547 28.8651 32.6014C28.8651 32.0045 29.0428 31.4573 29.3981 30.9598C29.7534 30.4623 30.258 30.0715 30.9118 29.7872C31.5656 29.4887 32.3118 29.3395 33.1504 29.3395C34.4438 29.3395 35.4885 29.6664 36.2845 30.3202C37.0804 30.974 37.5068 31.8695 37.5637 33.0065H35.6236C35.5809 32.3953 35.3322 31.905 34.8774 31.5354C34.4367 31.1659 33.8398 30.9811 33.0865 30.9811C32.39 30.9811 31.8357 31.1304 31.4235 31.4288C31.0113 31.7273 30.8052 32.1182 30.8052 32.6014C30.8052 32.9852 30.926 33.305 31.1677 33.5608C31.4235 33.8025 31.7362 34.0015 32.1058 34.1578C32.4895 34.2999 33.0154 34.4634 33.6834 34.6482C34.522 34.8756 35.2043 35.103 35.7302 35.3304C36.256 35.5436 36.7038 35.8705 37.0733 36.3111C37.4571 36.7517 37.6561 37.3274 37.6703 38.038C37.6703 38.6776 37.4926 39.2533 37.1373 39.765C36.7819 40.2766 36.2774 40.6817 35.6236 40.9802C34.984 41.2645 34.2449 41.4066 33.4063 41.4066ZM42.7756 31.1304V38.0167C42.7756 38.5853 42.8964 38.9903 43.138 39.232C43.3796 39.4594 43.7989 39.5731 44.3959 39.5731H45.8243V41.2147H44.0761C42.9959 41.2147 42.1857 40.966 41.6456 40.4685C41.1055 39.9711 40.8355 39.1538 40.8355 38.0167V31.1304H39.3217V29.5314H40.8355V26.5892H42.7756V29.5314H45.8243V31.1304H42.7756ZM58.6773 29.3395C59.6864 29.3395 60.5677 29.5598 61.321 30.0004C62.0885 30.441 62.657 30.9953 63.0266 31.6634V29.5314H64.988V41.4706C64.988 42.5366 64.7606 43.4817 64.3058 44.3061C63.851 45.1447 63.1971 45.7985 62.3443 46.2676C61.5058 46.7366 60.525 46.9711 59.4022 46.9711C57.8671 46.9711 56.5879 46.6087 55.5646 45.8838C54.5412 45.1589 53.9372 44.1711 53.7524 42.9203H55.6712C55.8844 43.631 56.325 44.1995 56.993 44.6259C57.661 45.0665 58.4641 45.2868 59.4022 45.2868C60.4682 45.2868 61.3352 44.9528 62.0032 44.2848C62.6855 43.6168 63.0266 42.6787 63.0266 41.4706V39.0188C62.6428 39.701 62.0743 40.2695 61.321 40.7244C60.5677 41.1792 59.6864 41.4066 58.6773 41.4066C57.6397 41.4066 56.6945 41.1508 55.8417 40.6391C55.0032 40.1274 54.3422 39.4096 53.859 38.4858C53.3757 37.5619 53.1341 36.5101 53.1341 35.3304C53.1341 34.1365 53.3757 33.0918 53.859 32.1964C54.3422 31.2867 55.0032 30.5831 55.8417 30.0857C56.6945 29.5882 57.6397 29.3395 58.6773 29.3395ZM63.0266 35.3517C63.0266 34.4705 62.8489 33.703 62.4936 33.0492C62.1382 32.3953 61.655 31.8979 61.0438 31.5568C60.4469 31.2014 59.7859 31.0238 59.0611 31.0238C58.3362 31.0238 57.6753 31.1943 57.0783 31.5354C56.4813 31.8766 56.0052 32.374 55.6499 33.0278C55.2945 33.6817 55.1169 34.4492 55.1169 35.3304C55.1169 36.2258 55.2945 37.0076 55.6499 37.6756C56.0052 38.3294 56.4813 38.834 57.0783 39.1893C57.6753 39.5304 58.3362 39.701 59.0611 39.701C59.7859 39.701 60.4469 39.5304 61.0438 39.1893C61.655 38.834 62.1382 38.3294 62.4936 37.6756C62.8489 37.0076 63.0266 36.2329 63.0266 35.3517ZM67.5418 35.3304C67.5418 34.1365 67.7834 33.0918 68.2666 32.1964C68.7499 31.2867 69.4108 30.5831 70.2494 30.0857C71.1022 29.5882 72.0474 29.3395 73.085 29.3395C74.1083 29.3395 74.9967 29.5598 75.75 30.0004C76.5033 30.441 77.0647 30.9953 77.4342 31.6634V29.5314H79.3957V41.2147H77.4342V39.0401C77.0505 39.7223 76.4748 40.2909 75.7073 40.7457C74.954 41.1863 74.0728 41.4066 73.0636 41.4066C72.0261 41.4066 71.088 41.1508 70.2494 40.6391C69.4108 40.1274 68.7499 39.4096 68.2666 38.4858C67.7834 37.5619 67.5418 36.5101 67.5418 35.3304ZM77.4342 35.3517C77.4342 34.4705 77.2566 33.703 76.9012 33.0492C76.5459 32.3953 76.0627 31.8979 75.4515 31.5568C74.8545 31.2014 74.1936 31.0238 73.4687 31.0238C72.7438 31.0238 72.0829 31.1943 71.486 31.5354C70.889 31.8766 70.4129 32.374 70.0575 33.0278C69.7022 33.6817 69.5245 34.4492 69.5245 35.3304C69.5245 36.2258 69.7022 37.0076 70.0575 37.6756C70.4129 38.3294 70.889 38.834 71.486 39.1893C72.0829 39.5304 72.7438 39.701 73.4687 39.701C74.1936 39.701 74.8545 39.5304 75.4515 39.1893C76.0627 38.834 76.5459 38.3294 76.9012 37.6756C77.2566 37.0076 77.4342 36.2329 77.4342 35.3517ZM96.7242 29.3182C97.6338 29.3182 98.444 29.51 99.1547 29.8938C99.8653 30.2633 100.427 30.8248 100.839 31.5781C101.251 32.3314 101.457 33.2481 101.457 34.3284V41.2147H99.5384V34.6055C99.5384 33.44 99.247 32.5517 98.6643 31.9405C98.0958 31.3151 97.3211 31.0024 96.3404 31.0024C95.3313 31.0024 94.5282 31.3293 93.9313 31.9832C93.3343 32.6228 93.0358 33.5537 93.0358 34.7761V41.2147H91.117V34.6055C91.117 33.44 90.8256 32.5517 90.2429 31.9405C89.6744 31.3151 88.8997 31.0024 87.919 31.0024C86.9099 31.0024 86.1068 31.3293 85.5099 31.9832C84.9129 32.6228 84.6144 33.5537 84.6144 34.7761V41.2147H82.6743V29.5314H84.6144V31.2156C84.9982 30.6045 85.5099 30.1354 86.1495 29.8085C86.8033 29.4816 87.521 29.3182 88.3028 29.3182C89.2835 29.3182 90.1505 29.5385 90.9038 29.9791C91.6571 30.4197 92.2185 31.0664 92.5881 31.9192C92.915 31.0948 93.4551 30.4552 94.2084 30.0004C94.9617 29.5456 95.8003 29.3182 96.7242 29.3182ZM115.3 34.9253C115.3 35.2949 115.278 35.6857 115.236 36.0979H105.898C105.969 37.2492 106.36 38.1517 107.07 38.8056C107.795 39.4452 108.669 39.765 109.693 39.765C110.531 39.765 111.228 39.5731 111.782 39.1893C112.35 38.7913 112.748 38.2655 112.976 37.6116H115.065C114.753 38.7345 114.127 39.6513 113.189 40.3619C112.251 41.0584 111.085 41.4066 109.693 41.4066C108.584 41.4066 107.589 41.1579 106.708 40.6604C105.841 40.1629 105.159 39.4594 104.661 38.5497C104.164 37.6259 103.915 36.5599 103.915 35.3517C103.915 34.1436 104.156 33.0847 104.64 32.175C105.123 31.2654 105.798 30.5689 106.665 30.0857C107.546 29.5882 108.555 29.3395 109.693 29.3395C110.801 29.3395 111.782 29.5811 112.635 30.0644C113.488 30.5476 114.141 31.2156 114.596 32.0684C115.065 32.907 115.3 33.8593 115.3 34.9253ZM113.296 34.5202C113.296 33.7811 113.132 33.1487 112.805 32.6228C112.478 32.0827 112.031 31.6776 111.462 31.4075C110.908 31.1233 110.29 30.9811 109.607 30.9811C108.627 30.9811 107.788 31.2938 107.092 31.9192C106.409 32.5446 106.018 33.4116 105.919 34.5202H113.296ZM0.51168 59.2238C0.51168 57.9872 0.731987 56.907 1.1726 55.9832C1.62743 55.0593 2.2386 54.3486 3.00612 53.8512C3.78785 53.3537 4.65487 53.105 5.60716 53.105C6.43153 53.105 7.1422 53.2684 7.73916 53.5953C8.33612 53.9222 8.79805 54.3628 9.12496 54.9172V53.2542H13.3037V65.2147H9.12496V63.5518C8.79805 64.1061 8.32901 64.5467 7.71784 64.8736C7.12088 65.2005 6.41732 65.364 5.60716 65.364C4.65487 65.364 3.78785 65.1152 3.00612 64.6178C2.2386 64.1203 1.62743 63.4096 1.1726 62.4858C0.731987 61.5477 0.51168 60.4604 0.51168 59.2238ZM9.12496 59.2238C9.12496 58.4563 8.91176 57.8522 8.48536 57.4116C8.07317 56.971 7.56149 56.7507 6.95032 56.7507C6.32493 56.7507 5.80615 56.971 5.39396 57.4116C4.98177 57.838 4.77568 58.4421 4.77568 59.2238C4.77568 59.9913 4.98177 60.6025 5.39396 61.0573C5.80615 61.4979 6.32493 61.7182 6.95032 61.7182C7.56149 61.7182 8.07317 61.4979 8.48536 61.0573C8.91176 60.6167 9.12496 60.0055 9.12496 59.2238ZM23.5093 53.1476C24.888 53.1476 25.9824 53.6095 26.7926 54.5334C27.6027 55.4431 28.0078 56.6796 28.0078 58.2431V65.2147H23.8291V58.7974C23.8291 58.1152 23.6514 57.5822 23.2961 57.1984C22.9408 56.8004 22.4646 56.6014 21.8677 56.6014C21.2423 56.6014 20.7519 56.8004 20.3966 57.1984C20.0412 57.5822 19.8636 58.1152 19.8636 58.7974V65.2147H15.6849V53.2542H19.8636V54.9598C20.2331 54.4197 20.7306 53.9862 21.356 53.6593C21.9814 53.3182 22.6991 53.1476 23.5093 53.1476ZM29.6185 59.2238C29.6185 57.9872 29.8388 56.907 30.2794 55.9832C30.7342 55.0593 31.3525 54.3486 32.1342 53.8512C32.916 53.3537 33.783 53.105 34.7353 53.105C35.5028 53.105 36.185 53.2684 36.782 53.5953C37.3932 53.908 37.8693 54.3415 38.2104 54.8958V49.4379H42.4105V65.2147H38.2104V63.5518C37.8835 64.1061 37.4216 64.5467 36.8246 64.8736C36.2277 65.2005 35.5241 65.364 34.714 65.364C33.7617 65.364 32.8946 65.1152 32.1129 64.6178C31.3454 64.1203 30.7342 63.4096 30.2794 62.4858C29.8388 61.5477 29.6185 60.4604 29.6185 59.2238ZM38.2318 59.2238C38.2318 58.4563 38.0186 57.8522 37.5922 57.4116C37.18 56.971 36.6683 56.7507 36.0571 56.7507C35.4317 56.7507 34.9129 56.971 34.5008 57.4116C34.0886 57.838 33.8825 58.4421 33.8825 59.2238C33.8825 59.9913 34.0886 60.6025 34.5008 61.0573C34.9129 61.4979 35.4317 61.7182 36.0571 61.7182C36.6683 61.7182 37.18 61.4979 37.5922 61.0573C38.0186 60.6167 38.2318 60.0055 38.2318 59.2238ZM66.5467 53.2542L63.498 65.2147H58.8076L57.1446 57.9659L55.4177 65.2147H50.7486L47.7212 53.2542H51.8786L53.2217 61.1852L54.9913 53.2542H59.4685L61.302 61.2066L62.6238 53.2542H66.5467ZM69.8463 52.1456C69.1072 52.1456 68.5103 51.9466 68.0554 51.5486C67.6148 51.1364 67.3945 50.6247 67.3945 50.0136C67.3945 49.3882 67.6148 48.8694 68.0554 48.4572C68.5103 48.045 69.1072 47.8389 69.8463 47.8389C70.5712 47.8389 71.1539 48.045 71.5946 48.4572C72.0494 48.8694 72.2768 49.3882 72.2768 50.0136C72.2768 50.6247 72.0494 51.1364 71.5946 51.5486C71.1539 51.9466 70.5712 52.1456 69.8463 52.1456ZM71.9144 53.2542V65.2147H67.7356V53.2542H71.9144ZM82.1185 53.1476C83.4972 53.1476 84.5916 53.6095 85.4018 54.5334C86.2119 55.4431 86.617 56.6796 86.617 58.2431V65.2147H82.4383V58.7974C82.4383 58.1152 82.2606 57.5822 81.9053 57.1984C81.5499 56.8004 81.0738 56.6014 80.4768 56.6014C79.8514 56.6014 79.3611 56.8004 79.0058 57.1984C78.6504 57.5822 78.4728 58.1152 78.4728 58.7974V65.2147H74.294V53.2542H78.4728V54.9598C78.8423 54.4197 79.3398 53.9862 79.9652 53.6593C80.5905 53.3182 81.3083 53.1476 82.1185 53.1476Z" fill="#5F24F5"/>
</svg>
