<svg width="157" height="91" viewBox="0 0 157 91" fill="none" xmlns="http://www.w3.org/2000/svg">
<path d="M27.2405 7.53867C27.2405 9.24 26.6538 10.6578 25.4805 11.792C24.3267 12.9067 22.5569 13.464 20.1712 13.464H16.2405V22H13.5712V1.55467H20.1712C22.4787 1.55467 24.2289 2.112 25.4218 3.22666C26.6343 4.34133 27.2405 5.77867 27.2405 7.53867ZM20.1712 11.264C21.6574 11.264 22.7525 10.9413 23.4565 10.296C24.1605 9.65067 24.5125 8.73155 24.5125 7.53867C24.5125 5.016 23.0654 3.75467 20.1712 3.75467H16.2405V11.264H20.1712ZM33.2275 0.293333V22H30.5581V0.293333H33.2275ZM36.7796 13.904C36.7796 12.2613 37.112 10.824 37.7769 9.592C38.4418 8.34044 39.3511 7.37244 40.5049 6.688C41.6782 6.00355 42.9787 5.66133 44.4062 5.66133C45.8142 5.66133 47.0365 5.96444 48.0729 6.57067C49.1093 7.17689 49.8818 7.93955 50.3902 8.85867V5.92533H53.0889V22H50.3902V19.008C49.8622 19.9467 49.0702 20.7289 48.0142 21.3547C46.9778 21.9609 45.7653 22.264 44.3769 22.264C42.9493 22.264 41.6587 21.912 40.5049 21.208C39.3511 20.504 38.4418 19.5164 37.7769 18.2453C37.112 16.9742 36.7796 15.5271 36.7796 13.904ZM50.3902 13.9333C50.3902 12.7209 50.1458 11.6649 49.6569 10.7653C49.168 9.86578 48.5031 9.18133 47.6622 8.712C46.8409 8.22311 45.9316 7.97867 44.9342 7.97867C43.9369 7.97867 43.0276 8.21333 42.2062 8.68267C41.3849 9.152 40.7298 9.83644 40.2409 10.736C39.752 11.6356 39.5076 12.6916 39.5076 13.904C39.5076 15.136 39.752 16.2116 40.2409 17.1307C40.7298 18.0302 41.3849 18.7244 42.2062 19.2133C43.0276 19.6827 43.9369 19.9173 44.9342 19.9173C45.9316 19.9173 46.8409 19.6827 47.6622 19.2133C48.5031 18.7244 49.168 18.0302 49.6569 17.1307C50.1458 16.2116 50.3902 15.1458 50.3902 13.9333ZM71.4451 5.92533L61.7651 29.568H59.0078L62.1758 21.824L55.6931 5.92533H58.6558L63.7011 18.9493L68.6878 5.92533H71.4451ZM95.7941 5.92533L86.1141 29.568H83.3568L86.5248 21.824L80.0421 5.92533H83.0048L88.0501 18.9493L93.0368 5.92533H95.7941ZM105.488 22.264C103.982 22.264 102.613 21.9218 101.381 21.2373C100.169 20.5529 99.2108 19.5849 98.5068 18.3333C97.8223 17.0622 97.4801 15.5956 97.4801 13.9333C97.4801 12.2907 97.8321 10.8436 98.5361 9.592C99.2596 8.32089 100.237 7.35289 101.469 6.688C102.701 6.00355 104.08 5.66133 105.605 5.66133C107.131 5.66133 108.509 6.00355 109.741 6.688C110.973 7.35289 111.941 8.31111 112.645 9.56267C113.369 10.8142 113.731 12.2711 113.731 13.9333C113.731 15.5956 113.359 17.0622 112.616 18.3333C111.893 19.5849 110.905 20.5529 109.653 21.2373C108.402 21.9218 107.013 22.264 105.488 22.264ZM105.488 19.9173C106.446 19.9173 107.346 19.6924 108.187 19.2427C109.028 18.7929 109.702 18.1182 110.211 17.2187C110.739 16.3191 111.003 15.224 111.003 13.9333C111.003 12.6427 110.749 11.5476 110.24 10.648C109.732 9.74844 109.067 9.08355 108.245 8.65333C107.424 8.20355 106.534 7.97867 105.576 7.97867C104.598 7.97867 103.699 8.20355 102.877 8.65333C102.076 9.08355 101.43 9.74844 100.941 10.648C100.453 11.5476 100.208 12.6427 100.208 13.9333C100.208 15.2436 100.443 16.3484 100.912 17.248C101.401 18.1476 102.046 18.8222 102.848 19.272C103.65 19.7022 104.53 19.9173 105.488 19.9173ZM131.496 5.92533V22H128.827V19.624C128.319 20.4453 127.605 21.0907 126.686 21.56C125.786 22.0098 124.789 22.2347 123.694 22.2347C122.442 22.2347 121.318 21.9804 120.32 21.472C119.323 20.944 118.531 20.1618 117.944 19.1253C117.377 18.0889 117.094 16.8276 117.094 15.3413V5.92533H119.734V14.9893C119.734 16.5733 120.135 17.7956 120.936 18.656C121.738 19.4969 122.833 19.9173 124.222 19.9173C125.649 19.9173 126.774 19.4773 127.595 18.5973C128.416 17.7173 128.827 16.4364 128.827 14.7547V5.92533H131.496ZM138.673 8.536C139.142 7.61689 139.807 6.90311 140.667 6.39467C141.547 5.88622 142.613 5.632 143.865 5.632V8.38933H143.161C140.169 8.38933 138.673 10.0124 138.673 13.2587V22H136.003V5.92533H138.673V8.536ZM2.97748 42.9173C3.52503 41.9591 4.32681 41.1769 5.38281 40.5707C6.43881 39.9644 7.64148 39.6613 8.99081 39.6613C10.4379 39.6613 11.7384 40.0036 12.8921 40.688C14.0459 41.3724 14.9553 42.3404 15.6201 43.592C16.285 44.824 16.6175 46.2613 16.6175 47.904C16.6175 49.5271 16.285 50.9742 15.6201 52.2453C14.9553 53.5164 14.0361 54.504 12.8628 55.208C11.709 55.912 10.4184 56.264 8.99081 56.264C7.60237 56.264 6.38014 55.9609 5.32414 55.3547C4.2877 54.7484 3.50548 53.976 2.97748 53.0373V56H0.308144V34.2933H2.97748V42.9173ZM13.8895 47.904C13.8895 46.6916 13.645 45.6356 13.1561 44.736C12.6673 43.8364 12.0024 43.152 11.1615 42.6827C10.3401 42.2133 9.43081 41.9787 8.43348 41.9787C7.4557 41.9787 6.54637 42.2231 5.70548 42.712C4.88414 43.1813 4.21925 43.8756 3.71081 44.7947C3.22192 45.6942 2.97748 46.7404 2.97748 47.9333C2.97748 49.1458 3.22192 50.2116 3.71081 51.1307C4.21925 52.0302 4.88414 52.7244 5.70548 53.2133C6.54637 53.6827 7.4557 53.9173 8.43348 53.9173C9.43081 53.9173 10.3401 53.6827 11.1615 53.2133C12.0024 52.7244 12.6673 52.0302 13.1561 51.1307C13.645 50.2116 13.8895 49.136 13.8895 47.904ZM34.7977 47.3467C34.7977 47.8551 34.7684 48.3929 34.7097 48.96H21.8617C21.9595 50.544 22.4973 51.7858 23.4751 52.6853C24.4724 53.5653 25.6751 54.0053 27.0831 54.0053C28.2368 54.0053 29.1951 53.7413 29.9577 53.2133C30.74 52.6658 31.2875 51.9422 31.6004 51.0427H34.4751C34.0448 52.5876 33.1844 53.8489 31.8937 54.8267C30.6031 55.7849 28.9995 56.264 27.0831 56.264C25.5577 56.264 24.1888 55.9218 22.9764 55.2373C21.7835 54.5529 20.8448 53.5849 20.1604 52.3333C19.476 51.0622 19.1337 49.5956 19.1337 47.9333C19.1337 46.2711 19.4662 44.8142 20.1311 43.5627C20.796 42.3111 21.7248 41.3529 22.9177 40.688C24.1302 40.0036 25.5186 39.6613 27.0831 39.6613C28.6084 39.6613 29.9577 39.9938 31.1311 40.6587C32.3044 41.3236 33.204 42.2427 33.8297 43.416C34.4751 44.5698 34.7977 45.88 34.7977 47.3467ZM32.0404 46.7893C32.0404 45.7724 31.8155 44.9022 31.3657 44.1787C30.916 43.4356 30.3 42.8782 29.5177 42.5067C28.7551 42.1156 27.9044 41.92 26.9657 41.92C25.6164 41.92 24.4626 42.3502 23.5044 43.2107C22.5657 44.0711 22.028 45.264 21.8911 46.7893H32.0404ZM44.0118 56.264C42.7798 56.264 41.6749 56.0587 40.6972 55.648C39.7194 55.2178 38.9469 54.6311 38.3798 53.888C37.8127 53.1253 37.4998 52.2551 37.4412 51.2773H40.1985C40.2767 52.0791 40.6483 52.7342 41.3132 53.2427C41.9976 53.7511 42.8874 54.0053 43.9825 54.0053C44.9994 54.0053 45.8012 53.7804 46.3878 53.3307C46.9745 52.8809 47.2678 52.3138 47.2678 51.6293C47.2678 50.9253 46.9549 50.4071 46.3292 50.0747C45.7034 49.7227 44.7354 49.3804 43.4252 49.048C42.2323 48.7351 41.2545 48.4222 40.4918 48.1093C39.7487 47.7769 39.1034 47.2978 38.5558 46.672C38.0278 46.0267 37.7638 45.1858 37.7638 44.1493C37.7638 43.328 38.0083 42.5751 38.4972 41.8907C38.9861 41.2062 39.6803 40.6684 40.5798 40.2773C41.4794 39.8667 42.5061 39.6613 43.6598 39.6613C45.4394 39.6613 46.8767 40.1111 47.9718 41.0107C49.0669 41.9102 49.6536 43.1422 49.7318 44.7067H47.0625C47.0038 43.8658 46.6616 43.1911 46.0358 42.6827C45.4296 42.1742 44.6083 41.92 43.5718 41.92C42.6136 41.92 41.8509 42.1253 41.2838 42.536C40.7167 42.9467 40.4332 43.4844 40.4332 44.1493C40.4332 44.6773 40.5994 45.1173 40.9318 45.4693C41.2838 45.8018 41.7141 46.0756 42.2225 46.2907C42.7505 46.4862 43.4741 46.7111 44.3932 46.9653C45.5469 47.2782 46.4856 47.5911 47.2092 47.904C47.9327 48.1973 48.5487 48.6471 49.0572 49.2533C49.5852 49.8596 49.8589 50.6516 49.8785 51.6293C49.8785 52.5093 49.6341 53.3013 49.1452 54.0053C48.6563 54.7093 47.9621 55.2667 47.0625 55.6773C46.1825 56.0684 45.1656 56.264 44.0118 56.264ZM56.9027 42.1253V51.6C56.9027 52.3822 57.0689 52.9396 57.4014 53.272C57.7338 53.5849 58.3107 53.7413 59.132 53.7413H61.0974V56H58.692C57.2058 56 56.0911 55.6578 55.348 54.9733C54.6049 54.2889 54.2334 53.1644 54.2334 51.6V42.1253H52.1507V39.9253H54.2334V35.8773H56.9027V39.9253H61.0974V42.1253H56.9027ZM78.7812 39.6613C80.1697 39.6613 81.3821 39.9644 82.4186 40.5707C83.4746 41.1769 84.2568 41.9396 84.7652 42.8587V39.9253H87.4639V56.352C87.4639 57.8187 87.151 59.1191 86.5252 60.2533C85.8995 61.4071 84.9999 62.3067 83.8266 62.952C82.6728 63.5973 81.3234 63.92 79.7786 63.92C77.6666 63.92 75.9066 63.4213 74.4986 62.424C73.0906 61.4267 72.2594 60.0676 72.0052 58.3467H74.6452C74.9386 59.3244 75.5448 60.1067 76.4639 60.6933C77.383 61.2996 78.4879 61.6027 79.7786 61.6027C81.2452 61.6027 82.4381 61.1431 83.3572 60.224C84.2959 59.3049 84.7652 58.0142 84.7652 56.352V52.9787C84.2372 53.9173 83.455 54.6996 82.4186 55.3253C81.3821 55.9511 80.1697 56.264 78.7812 56.264C77.3537 56.264 76.0532 55.912 74.8799 55.208C73.7261 54.504 72.8168 53.5164 72.1519 52.2453C71.487 50.9742 71.1546 49.5271 71.1546 47.904C71.1546 46.2613 71.487 44.824 72.1519 43.592C72.8168 42.3404 73.7261 41.3724 74.8799 40.688C76.0532 40.0036 77.3537 39.6613 78.7812 39.6613ZM84.7652 47.9333C84.7652 46.7209 84.5208 45.6649 84.0319 44.7653C83.543 43.8658 82.8781 43.1813 82.0372 42.712C81.2159 42.2231 80.3066 41.9787 79.3092 41.9787C78.3119 41.9787 77.4026 42.2133 76.5812 42.6827C75.7599 43.152 75.1048 43.8364 74.6159 44.736C74.127 45.6356 73.8826 46.6916 73.8826 47.904C73.8826 49.136 74.127 50.2116 74.6159 51.1307C75.1048 52.0302 75.7599 52.7244 76.5812 53.2133C77.4026 53.6827 78.3119 53.9173 79.3092 53.9173C80.3066 53.9173 81.2159 53.6827 82.0372 53.2133C82.8781 52.7244 83.543 52.0302 84.0319 51.1307C84.5208 50.2116 84.7652 49.1458 84.7652 47.9333ZM90.9775 47.904C90.9775 46.2613 91.3099 44.824 91.9748 43.592C92.6397 42.3404 93.549 41.3724 94.7028 40.688C95.8761 40.0036 97.1766 39.6613 98.6041 39.6613C100.012 39.6613 101.234 39.9644 102.271 40.5707C103.307 41.1769 104.08 41.9396 104.588 42.8587V39.9253H107.287V56H104.588V53.008C104.06 53.9467 103.268 54.7289 102.212 55.3547C101.176 55.9609 99.9633 56.264 98.5748 56.264C97.1473 56.264 95.8566 55.912 94.7028 55.208C93.549 54.504 92.6397 53.5164 91.9748 52.2453C91.3099 50.9742 90.9775 49.5271 90.9775 47.904ZM104.588 47.9333C104.588 46.7209 104.344 45.6649 103.855 44.7653C103.366 43.8658 102.701 43.1813 101.86 42.712C101.039 42.2231 100.129 41.9787 99.1321 41.9787C98.1348 41.9787 97.2255 42.2133 96.4041 42.6827C95.5828 43.152 94.9277 43.8364 94.4388 44.736C93.9499 45.6356 93.7055 46.6916 93.7055 47.904C93.7055 49.136 93.9499 50.2116 94.4388 51.1307C94.9277 52.0302 95.5828 52.7244 96.4041 53.2133C97.2255 53.6827 98.1348 53.9173 99.1321 53.9173C100.129 53.9173 101.039 53.6827 101.86 53.2133C102.701 52.7244 103.366 52.0302 103.855 51.1307C104.344 50.2116 104.588 49.1458 104.588 47.9333ZM131.128 39.632C132.38 39.632 133.495 39.896 134.472 40.424C135.45 40.9324 136.223 41.7049 136.79 42.7413C137.357 43.7778 137.64 45.0391 137.64 46.5253V56H135V46.9067C135 45.3031 134.6 44.0809 133.798 43.24C133.016 42.3796 131.95 41.9493 130.6 41.9493C129.212 41.9493 128.107 42.3991 127.286 43.2987C126.464 44.1787 126.054 45.4596 126.054 47.1413V56H123.414V46.9067C123.414 45.3031 123.013 44.0809 122.211 43.24C121.429 42.3796 120.363 41.9493 119.014 41.9493C117.625 41.9493 116.52 42.3991 115.699 43.2987C114.878 44.1787 114.467 45.4596 114.467 47.1413V56H111.798V39.9253H114.467V42.2427C114.995 41.4018 115.699 40.7564 116.579 40.3067C117.479 39.8569 118.466 39.632 119.542 39.632C120.891 39.632 122.084 39.9351 123.12 40.5413C124.157 41.1476 124.929 42.0373 125.438 43.2107C125.888 42.0764 126.631 41.1964 127.667 40.5707C128.704 39.9449 129.857 39.632 131.128 39.632ZM156.686 47.3467C156.686 47.8551 156.656 48.3929 156.598 48.96H143.75C143.848 50.544 144.385 51.7858 145.363 52.6853C146.36 53.5653 147.563 54.0053 148.971 54.0053C150.125 54.0053 151.083 53.7413 151.846 53.2133C152.628 52.6658 153.176 51.9422 153.488 51.0427H156.363C155.933 52.5876 155.072 53.8489 153.782 54.8267C152.491 55.7849 150.888 56.264 148.971 56.264C147.446 56.264 146.077 55.9218 144.864 55.2373C143.672 54.5529 142.733 53.5849 142.048 52.3333C141.364 51.0622 141.022 49.5956 141.022 47.9333C141.022 46.2711 141.354 44.8142 142.019 43.5627C142.684 42.3111 143.613 41.3529 144.806 40.688C146.018 40.0036 147.407 39.6613 148.971 39.6613C150.496 39.6613 151.846 39.9938 153.019 40.6587C154.192 41.3236 155.092 42.2427 155.718 43.416C156.363 44.5698 156.686 45.88 156.686 47.3467ZM153.928 46.7893C153.928 45.7724 153.704 44.9022 153.254 44.1787C152.804 43.4356 152.188 42.8782 151.406 42.5067C150.643 42.1156 149.792 41.92 148.854 41.92C147.504 41.92 146.351 42.3502 145.392 43.2107C144.454 44.0711 143.916 45.264 143.779 46.7893H153.928ZM18.3616 81.7573C18.3616 80.056 18.6647 78.5698 19.2709 77.2987C19.8967 76.0276 20.7376 75.0498 21.7936 74.3653C22.8691 73.6809 24.062 73.3387 25.3722 73.3387C26.5064 73.3387 27.4842 73.5636 28.3056 74.0133C29.1269 74.4631 29.7624 75.0693 30.2122 75.832V73.544H35.9616V90H30.2122V87.712C29.7624 88.4747 29.1171 89.0809 28.2762 89.5307C27.4549 89.9804 26.4869 90.2053 25.3722 90.2053C24.062 90.2053 22.8691 89.8631 21.7936 89.1787C20.7376 88.4942 19.8967 87.5164 19.2709 86.2453C18.6647 84.9547 18.3616 83.4587 18.3616 81.7573ZM30.2122 81.7573C30.2122 80.7013 29.9189 79.8702 29.3322 79.264C28.7651 78.6578 28.0611 78.3547 27.2202 78.3547C26.3598 78.3547 25.646 78.6578 25.0789 79.264C24.5118 79.8507 24.2282 80.6818 24.2282 81.7573C24.2282 82.8133 24.5118 83.6542 25.0789 84.28C25.646 84.8862 26.3598 85.1893 27.2202 85.1893C28.0611 85.1893 28.7651 84.8862 29.3322 84.28C29.9189 83.6738 30.2122 82.8329 30.2122 81.7573ZM50.0031 73.3973C51.8999 73.3973 53.4057 74.0329 54.5204 75.304C55.6351 76.5556 56.1924 78.2569 56.1924 80.408V90H50.4431V81.1707C50.4431 80.232 50.1986 79.4987 49.7097 78.9707C49.2208 78.4231 48.5657 78.1493 47.7444 78.1493C46.8839 78.1493 46.2093 78.4231 45.7204 78.9707C45.2315 79.4987 44.9871 80.232 44.9871 81.1707V90H39.2377V73.544H44.9871V75.8907C45.4955 75.1476 46.1799 74.5511 47.0404 74.1013C47.9008 73.632 48.8884 73.3973 50.0031 73.3973ZM58.4084 81.7573C58.4084 80.056 58.7115 78.5698 59.3178 77.2987C59.9435 76.0276 60.7942 75.0498 61.8698 74.3653C62.9453 73.6809 64.1382 73.3387 65.4484 73.3387C66.5044 73.3387 67.4431 73.5636 68.2644 74.0133C69.1053 74.4436 69.7604 75.04 70.2298 75.8027V68.2933H76.0084V90H70.2298V87.712C69.78 88.4747 69.1444 89.0809 68.3231 89.5307C67.5018 89.9804 66.5338 90.2053 65.4191 90.2053C64.1089 90.2053 62.916 89.8631 61.8404 89.1787C60.7844 88.4942 59.9435 87.5164 59.3178 86.2453C58.7115 84.9547 58.4084 83.4587 58.4084 81.7573ZM70.2591 81.7573C70.2591 80.7013 69.9658 79.8702 69.3791 79.264C68.812 78.6578 68.108 78.3547 67.2671 78.3547C66.4066 78.3547 65.6929 78.6578 65.1258 79.264C64.5586 79.8507 64.2751 80.6818 64.2751 81.7573C64.2751 82.8133 64.5586 83.6542 65.1258 84.28C65.6929 84.8862 66.4066 85.1893 67.2671 85.1893C68.108 85.1893 68.812 84.8862 69.3791 84.28C69.9658 83.6738 70.2591 82.8329 70.2591 81.7573ZM109.217 73.544L105.022 90H98.5685L96.2805 80.0267L93.9045 90H87.4805L83.3152 73.544H89.0352L90.8832 84.456L93.3178 73.544H99.4779L102.001 84.4853L103.819 73.544H109.217ZM113.756 72.0187C112.739 72.0187 111.918 71.7449 111.292 71.1973C110.686 70.6302 110.383 69.9262 110.383 69.0853C110.383 68.2249 110.686 67.5111 111.292 66.944C111.918 66.3769 112.739 66.0933 113.756 66.0933C114.754 66.0933 115.555 66.3769 116.162 66.944C116.787 67.5111 117.1 68.2249 117.1 69.0853C117.1 69.9262 116.787 70.6302 116.162 71.1973C115.555 71.7449 114.754 72.0187 113.756 72.0187ZM116.602 73.544V90H110.852V73.544H116.602ZM130.641 73.3973C132.538 73.3973 134.044 74.0329 135.158 75.304C136.273 76.5556 136.83 78.2569 136.83 80.408V90H131.081V81.1707C131.081 80.232 130.837 79.4987 130.348 78.9707C129.859 78.4231 129.204 78.1493 128.382 78.1493C127.522 78.1493 126.847 78.4231 126.358 78.9707C125.87 79.4987 125.625 80.232 125.625 81.1707V90H119.876V73.544H125.625V75.8907C126.134 75.1476 126.818 74.5511 127.678 74.1013C128.539 73.632 129.526 73.3973 130.641 73.3973Z" fill="#6624F5"/>
</svg>
