<svg width="111" height="110" viewBox="0 0 111 110" fill="none" xmlns="http://www.w3.org/2000/svg">
<path d="M99.9115 36.4305C99.053 34.3415 98.7382 31.6873 98.4305 28.8827C97.9011 24.2467 97.3717 19.4102 94.0521 16.0977C90.7396 12.7638 85.9176 12.2343 81.2529 11.7193C78.4699 11.4045 75.8155 11.0969 73.705 10.2383C71.7447 9.42988 69.7486 7.80588 67.6452 6.09597C64.1109 3.24136 60.1188 0.0147705 55.1894 0.0147705C50.2601 0.0147705 46.2893 3.24136 42.7336 6.09597C40.6087 7.79872 38.6341 9.42989 36.6738 10.2383C34.5705 11.0969 31.9306 11.4116 29.1259 11.7193C24.4755 12.2344 19.6535 12.7638 16.3267 16.0977C13.0142 19.4102 12.4776 24.2322 11.9483 28.8827C11.6335 31.6871 11.3473 34.3415 10.4673 36.4305C9.65888 38.3908 8.03489 40.4084 6.32498 42.5117C3.47037 46.046 0.229492 50.0382 0.229492 54.9676C0.229492 59.8969 3.47037 63.8676 6.32498 67.4234C8.02773 69.5483 9.6589 71.5229 10.4673 73.4831C11.3259 75.5865 11.6406 78.2264 11.9483 81.031C12.4777 85.6814 13.0071 90.5035 16.3267 93.816C19.6606 97.1499 24.4612 97.6794 29.1259 98.2087C31.9304 98.5235 34.5634 98.8097 36.6738 99.6896C38.6341 100.498 40.6303 102.122 42.7336 103.832C46.2679 106.687 50.2815 109.927 55.1894 109.927C60.0973 109.927 64.1109 106.687 67.6452 103.832C69.7702 102.129 71.7662 100.498 73.705 99.6896C75.8083 98.8311 78.4699 98.5163 81.2529 98.2087C85.9033 97.6793 90.7396 97.1498 94.0521 93.816C97.3646 90.5035 97.9012 85.7029 98.4305 81.031C98.7454 78.2266 99.0315 75.5936 99.9115 73.4831C100.734 71.5229 102.344 69.5267 104.068 67.4234C106.923 63.8891 110.149 59.8755 110.149 54.9676C110.149 50.0596 106.923 46.046 104.068 42.5117C102.344 40.3868 100.734 38.3908 99.9115 36.4305ZM55.2041 93.5008C33.9419 93.5008 16.6707 76.2086 16.6707 54.9674C16.6707 33.7181 33.9628 16.434 55.2041 16.434C76.4534 16.434 93.7374 33.7261 93.7374 54.9674C93.7374 76.2167 76.4453 93.5008 55.2041 93.5008Z" fill="#5F24F5"/>
</svg>
