<svg width="84" height="84" viewBox="0 0 84 84" fill="none" xmlns="http://www.w3.org/2000/svg">
<path d="M83.7626 41.9851C83.7626 64.943 65.1571 83.548 42.1997 83.548C19.2422 83.548 0.636719 64.9425 0.636719 41.9851C0.636719 19.0276 19.2422 0.422119 42.1997 0.422119C65.1571 0.422119 83.7626 19.0276 83.7626 41.9851Z" fill="#FFD272"/>
<path d="M77.4609 41.9674C77.4609 61.4419 61.6783 77.2242 42.2041 77.2242C22.7299 77.2242 6.94727 61.4416 6.94727 41.9674C6.94727 22.4932 22.7299 6.71057 42.2041 6.71057C61.6783 6.71057 77.4609 22.4932 77.4609 41.9674Z" fill="#5F24F5"/>
<path d="M19.8556 32.9513V28.3676H27.5283V46.5779H22.4215V32.9513H19.8556ZM32.952 36.6881C31.4739 35.8743 30.7349 34.6038 30.7349 32.8766C30.7349 31.9798 30.9674 31.166 31.4324 30.4353C31.9141 29.6879 32.6365 29.0984 33.5997 28.6666C34.563 28.2182 35.7504 27.994 37.1621 27.994C38.5737 27.994 39.7611 28.2182 40.7244 28.6666C41.6876 29.0984 42.4018 29.6879 42.8668 30.4353C43.3484 31.166 43.5892 31.9798 43.5892 32.8766C43.5892 33.7568 43.3899 34.5208 42.9913 35.1685C42.6093 35.7995 42.0696 36.3061 41.3721 36.6881C42.2357 37.1365 42.8917 37.7343 43.3401 38.4817C43.7885 39.229 44.0127 40.1092 44.0127 41.1223C44.0127 42.3346 43.7055 43.3809 43.091 44.2611C42.4765 45.1247 41.6461 45.7807 40.5998 46.2291C39.5702 46.6775 38.4242 46.9017 37.1621 46.9017C35.8999 46.9017 34.7456 46.6775 33.6994 46.2291C32.6697 45.7807 31.8476 45.1247 31.2331 44.2611C30.6187 43.3809 30.3114 42.3346 30.3114 41.1223C30.3114 40.1092 30.5356 39.229 30.984 38.4817C31.4324 37.7343 32.0884 37.1365 32.952 36.6881ZM38.8062 33.6489C38.8062 33.0676 38.6567 32.6192 38.3578 32.3036C38.0589 31.9715 37.6603 31.8054 37.1621 31.8054C36.6804 31.8054 36.2819 31.9715 35.9663 32.3036C35.6674 32.6358 35.5179 33.0842 35.5179 33.6489C35.5179 34.2135 35.6674 34.6536 35.9663 34.9692C36.2819 35.2847 36.6804 35.4425 37.1621 35.4425C37.6437 35.4425 38.034 35.2847 38.3329 34.9692C38.6484 34.6536 38.8062 34.2135 38.8062 33.6489ZM37.1621 38.7806C36.531 38.7806 36.0161 38.9716 35.6175 39.3536C35.2356 39.7189 35.0446 40.2172 35.0446 40.8483C35.0446 41.4461 35.2356 41.9361 35.6175 42.318C35.9995 42.7 36.5144 42.891 37.1621 42.891C37.8098 42.891 38.3163 42.7 38.6817 42.318C39.0636 41.9361 39.2546 41.4461 39.2546 40.8483C39.2546 40.2172 39.0636 39.7189 38.6817 39.3536C38.2997 38.9716 37.7931 38.7806 37.1621 38.7806ZM60.6366 41.4461C60.6366 42.3928 60.3792 43.2647 59.8643 44.0618C59.3661 44.8424 58.6271 45.4735 57.6472 45.9551C56.684 46.4367 55.5214 46.7024 54.1596 46.7523V48.7452H52.5902V46.7024C50.7634 46.5364 49.2687 45.98 48.1061 45.0334C46.9602 44.0867 46.354 42.7997 46.2876 41.1721H51.4941C51.5605 42.0191 51.9259 42.5754 52.5902 42.8412V39.6525C51.1952 39.2705 50.0991 38.9218 49.3019 38.6062C48.5047 38.2741 47.7906 37.7426 47.1595 37.0119C46.545 36.2812 46.2378 35.2847 46.2378 34.0225C46.2378 32.9763 46.5118 32.0711 47.0599 31.3072C47.6245 30.5266 48.3885 29.9288 49.3517 29.5136C50.315 29.0818 51.3944 28.8327 52.5902 28.7662V26.7484H54.1596V28.7662C56.0031 28.8991 57.4645 29.4305 58.544 30.3606C59.6401 31.2906 60.2463 32.5694 60.3626 34.1969H55.1062C55.0398 33.433 54.7243 32.9264 54.1596 32.6773V35.8411L54.7824 36.0404C55.9781 36.3725 56.9663 36.7213 57.7469 37.0866C58.544 37.4354 59.2249 37.9668 59.7896 38.681C60.3543 39.3785 60.6366 40.3002 60.6366 41.4461ZM51.4443 33.7983C51.4443 34.3962 51.8262 34.8861 52.5902 35.2681V32.5278C51.8262 32.6607 51.4443 33.0842 51.4443 33.7983ZM54.1596 42.9657C54.5582 42.8827 54.8737 42.7249 55.1062 42.4924C55.3388 42.2433 55.455 41.9361 55.455 41.5707C55.455 40.9894 55.0232 40.5161 54.1596 40.1507V42.9657ZM22.3361 53.4141C22.9831 53.4141 23.5485 53.5452 24.0323 53.8075C24.5219 54.064 24.8978 54.4253 25.1601 54.8916C25.4224 55.3579 25.5536 55.8912 25.5536 56.4916C25.5536 57.0861 25.4195 57.6165 25.1514 58.0828C24.8891 58.5491 24.5131 58.9163 24.0235 59.1844C23.5398 59.4467 22.9773 59.5779 22.3361 59.5779H19.8968V53.4141H22.3361ZM22.205 58.0653C22.7063 58.0653 23.0997 57.9284 23.3853 57.6544C23.6709 57.3805 23.8137 56.9929 23.8137 56.4916C23.8137 55.9845 23.6709 55.594 23.3853 55.32C23.0997 55.0403 22.7063 54.9004 22.205 54.9004H21.6105V58.0653H22.205ZM28.0397 53.4141V59.5779H26.326V53.4141H28.0397ZM31.3412 59.6391C30.6242 59.6391 30.0355 59.4701 29.5751 59.132C29.1146 58.7881 28.8669 58.2985 28.8319 57.6632H30.6592C30.6767 57.8788 30.7408 58.0362 30.8516 58.1353C30.9623 58.2344 31.1051 58.2839 31.28 58.2839C31.4373 58.2839 31.5656 58.246 31.6647 58.1703C31.7696 58.0887 31.822 57.9779 31.822 57.838C31.822 57.6573 31.7375 57.5174 31.5685 57.4184C31.3995 57.3193 31.1255 57.2085 30.7466 57.0861C30.3445 56.9521 30.0181 56.8238 29.7674 56.7014C29.5226 56.5732 29.307 56.3896 29.1204 56.1506C28.9398 55.9058 28.8494 55.5882 28.8494 55.1976C28.8494 54.8013 28.9485 54.4632 29.1467 54.1834C29.3448 53.8978 29.6188 53.6822 29.9685 53.5365C30.3182 53.3907 30.7146 53.3179 31.1576 53.3179C31.8745 53.3179 32.4457 53.4869 32.8712 53.825C33.3025 54.1572 33.5328 54.6264 33.5619 55.2326H31.6996C31.6938 55.0461 31.6355 54.9062 31.5248 54.8129C31.4199 54.7197 31.2829 54.673 31.1139 54.673C30.9856 54.673 30.8807 54.7109 30.7991 54.7867C30.7175 54.8625 30.6767 54.9703 30.6767 55.1102C30.6767 55.2268 30.7204 55.3288 30.8078 55.4162C30.9011 55.4978 31.0148 55.5707 31.1488 55.6348C31.2829 55.6931 31.4811 55.7688 31.7433 55.8621C32.1339 55.9962 32.4544 56.1302 32.7051 56.2643C32.9615 56.3925 33.1801 56.5761 33.3608 56.8151C33.5473 57.0482 33.6406 57.3455 33.6406 57.7069C33.6406 58.0741 33.5473 58.4034 33.3608 58.6948C33.1801 58.9863 32.9149 59.2165 32.5652 59.3855C32.2213 59.5546 31.8133 59.6391 31.3412 59.6391ZM34.2274 56.4829C34.2274 55.8767 34.3527 55.3375 34.6033 54.8654C34.8598 54.3874 35.2212 54.0173 35.6875 53.755C36.1538 53.4869 36.69 53.3529 37.2962 53.3529C38.0656 53.3529 38.7126 53.5598 39.2371 53.9736C39.7617 54.3816 40.0998 54.9383 40.2513 55.6435H38.4066C38.2958 55.4104 38.1413 55.2326 37.9432 55.1102C37.7508 54.9878 37.5264 54.9266 37.27 54.9266C36.8736 54.9266 36.5559 55.0694 36.317 55.355C36.0838 55.6348 35.9673 56.0107 35.9673 56.4829C35.9673 56.9608 36.0838 57.3426 36.317 57.6282C36.5559 57.908 36.8736 58.0479 37.27 58.0479C37.5264 58.0479 37.7508 57.9867 37.9432 57.8642C38.1413 57.7418 38.2958 57.5641 38.4066 57.3309H40.2513C40.0998 58.0362 39.7617 58.5957 39.2371 59.0096C38.7126 59.4176 38.0656 59.6216 37.2962 59.6216C36.69 59.6216 36.1538 59.4905 35.6875 59.2282C35.2212 58.96 34.8598 58.5899 34.6033 58.1178C34.3527 57.6398 34.2274 57.0949 34.2274 56.4829ZM44.0179 59.6391C43.4409 59.6391 42.9105 59.505 42.4267 59.2369C41.9429 58.963 41.5582 58.587 41.2726 58.1091C40.9928 57.6253 40.853 57.0803 40.853 56.4741C40.853 55.8679 40.9928 55.3259 41.2726 54.8479C41.5582 54.3641 41.9429 53.9882 42.4267 53.7201C42.9105 53.4519 43.4409 53.3179 44.0179 53.3179C44.6008 53.3179 45.1312 53.4519 45.6092 53.7201C46.0929 53.9882 46.4747 54.3641 46.7545 54.8479C47.0343 55.3259 47.1742 55.8679 47.1742 56.4741C47.1742 57.0803 47.0343 57.6253 46.7545 58.1091C46.4747 58.587 46.0929 58.963 45.6092 59.2369C45.1254 59.505 44.595 59.6391 44.0179 59.6391ZM44.0179 58.0479C44.4551 58.0479 44.799 57.9051 45.0496 57.6194C45.3061 57.3338 45.4343 56.9521 45.4343 56.4741C45.4343 55.9845 45.3061 55.5998 45.0496 55.32C44.799 55.0344 44.4551 54.8916 44.0179 54.8916C43.575 54.8916 43.2281 55.0344 42.9775 55.32C42.7269 55.5998 42.6016 55.9845 42.6016 56.4741C42.6016 56.9579 42.7269 57.3426 42.9775 57.6282C43.2281 57.908 43.575 58.0479 44.0179 58.0479ZM49.6232 53.4141V56.9899C49.6232 57.3222 49.6989 57.5786 49.8505 57.7593C50.0079 57.94 50.2439 58.0304 50.5587 58.0304C50.8734 58.0304 51.1095 57.94 51.2668 57.7593C51.43 57.5728 51.5117 57.3164 51.5117 56.9899V53.4141H53.2253V56.9899C53.2253 57.5553 53.1058 58.0391 52.8668 58.4413C52.6278 58.8376 52.3014 59.1378 51.8876 59.3418C51.4796 59.54 51.025 59.6391 50.5237 59.6391C50.0224 59.6391 49.5736 59.54 49.1773 59.3418C48.7867 59.1378 48.4778 58.8376 48.2505 58.4413C48.029 58.0449 47.9183 57.5612 47.9183 56.9899V53.4141H49.6232ZM59.878 59.5779H58.1643L55.8824 56.1331V59.5779H54.1688V53.4141H55.8824L58.1643 56.9025V53.4141H59.878V59.5779ZM65.4967 53.4141V54.778H63.853V59.5779H62.1393V54.778H60.5131V53.4141H65.4967Z" fill="#FFD272"/>
</svg>
