<svg width="218" height="35" viewBox="0 0 218 35" fill="none" xmlns="http://www.w3.org/2000/svg">
<path d="M4.19678 34.6376L8.39201 27.4029H31.5942L35.7895 34.6376H4.19678Z" fill="white"/>
<path d="M39.9392 27.4021L31.5913 27.4021L19.969 7.28196L24.158 0.0474707L39.9392 27.4021Z" fill="white"/>
<path d="M0.00207056 27.4021L8.39254 27.4021L19.9722 7.28207L15.7984 0.0474325L0.00207056 27.4021Z" fill="white"/>
<path d="M24.165 0.0478058L19.9697 7.28244L15.7959 0.0478058H24.165Z" fill="white"/>
<path d="M0 27.4029H8.39047L4.19523 34.6376L0 27.4029Z" fill="white"/>
<path d="M39.9849 27.4029H31.5944L35.7896 34.6376L39.9849 27.4029Z" fill="#72FFAA"/>
<path d="M46.2222 10.787C46.9886 9.29611 48.0355 8.14641 49.3535 7.34723C50.6714 6.54338 52.1483 6.14145 53.7793 6.14145C55.2001 6.14145 56.4479 6.42654 57.5135 7.00139C58.5791 7.57623 59.4344 8.29596 60.0746 9.16992V6.4499H64.9258V25.5181H60.0746V22.7279C59.453 23.6206 58.5978 24.3637 57.5135 24.9479C56.4246 25.5321 55.1674 25.8265 53.7466 25.8265C52.1389 25.8265 50.6761 25.4152 49.3581 24.588C48.0402 23.7608 46.9933 22.5971 46.2268 21.0969C45.4604 19.592 45.0771 17.8674 45.0771 15.9186C45.0771 13.9697 45.4604 12.2825 46.2268 10.7917L46.2222 10.787ZM59.3923 12.9742C58.9343 12.1376 58.3127 11.4927 57.5322 11.0487C56.7517 10.6 55.9152 10.3804 55.0178 10.3804C54.1205 10.3804 53.298 10.6 52.5408 11.0347C51.7837 11.4693 51.1668 12.1096 50.6995 12.9415C50.2274 13.7781 49.9937 14.7735 49.9937 15.9186C49.9937 17.0636 50.2274 18.0731 50.6995 18.9283C51.1715 19.7883 51.7884 20.4472 52.5595 20.9053C53.326 21.3633 54.1485 21.5923 55.0178 21.5923C55.8871 21.5923 56.7517 21.3679 57.5322 20.9193C58.3127 20.4706 58.9296 19.8303 59.3923 18.9938C59.8503 18.1572 60.0793 17.1524 60.0793 15.984C60.0793 14.8156 59.8503 13.8108 59.3923 12.9742Z" fill="white"/>
<path d="M68.1817 10.7877C68.9482 9.2968 69.9997 8.1471 71.3317 7.34792C72.6637 6.54407 74.1405 6.14214 75.7716 6.14214C77.0101 6.14214 78.1925 6.41321 79.3188 6.95067C80.4452 7.48813 81.3378 8.20786 82.0015 9.10518V2.20699L86.89 0.0478058V25.5188H82.0015V22.6959C81.4032 23.6353 80.5667 24.3924 79.4871 24.9673C78.4075 25.5421 77.1596 25.8272 75.7342 25.8272C74.1265 25.8272 72.659 25.4159 71.327 24.5887C69.9951 23.7615 68.9435 22.5978 68.177 21.0976C67.4106 19.5927 67.0273 17.8681 67.0273 15.9192C67.0273 13.9704 67.4106 12.2832 68.177 10.7923L68.1817 10.7877ZM81.3472 12.9749C80.8891 12.1383 80.2676 11.4934 79.4871 11.0494C78.7066 10.6007 77.87 10.3811 76.9727 10.3811C76.0754 10.3811 75.2528 10.6007 74.4957 11.0354C73.7386 11.47 73.1217 12.1103 72.6543 12.9422C72.1823 13.7788 71.9486 14.7742 71.9486 15.9192C71.9486 17.0643 72.1823 18.0738 72.6543 18.929C73.1263 19.789 73.7433 20.4479 74.5144 20.9059C75.2809 21.364 76.1034 21.593 76.9727 21.593C77.842 21.593 78.7066 21.3686 79.4871 20.92C80.2676 20.4713 80.8845 19.831 81.3472 18.9945C81.8052 18.1579 82.0342 17.1531 82.0342 15.9847C82.0342 14.8163 81.8052 13.8115 81.3472 12.9749Z" fill="white"/>
<path d="M90.1948 10.8057C90.9986 9.32415 92.1109 8.17913 93.5317 7.36592C94.9524 6.55272 96.5835 6.14145 98.4202 6.14145C100.785 6.14145 102.739 6.73499 104.29 7.9174C105.837 9.09982 106.875 10.7589 107.408 12.8901H102.211C101.935 12.0629 101.472 11.4179 100.818 10.9459C100.163 10.4738 99.3549 10.2402 98.3922 10.2402C97.0135 10.2402 95.9245 10.7402 95.1207 11.7357C94.3168 12.7359 93.9149 14.1519 93.9149 15.9887C93.9149 17.8254 94.3168 19.2087 95.1207 20.2042C95.9245 21.2044 97.0135 21.7044 98.3922 21.7044C100.341 21.7044 101.617 20.8305 102.211 19.0872H107.408C106.879 21.153 105.837 22.7934 104.276 24.0085C102.715 25.2236 100.766 25.8312 98.4249 25.8312C96.5882 25.8312 94.9618 25.4246 93.5364 24.6114C92.1156 23.7982 90.9986 22.6485 90.1994 21.1716C89.3956 19.6901 88.9937 17.9656 88.9937 15.9887C88.9937 14.0117 89.3956 12.2919 90.1994 10.8103L90.1948 10.8057Z" fill="white"/>
<path d="M116.816 7.03582C117.816 6.46098 118.956 6.17589 120.242 6.17589V11.2374H118.97C117.456 11.2374 116.311 11.5926 115.545 12.3029C114.778 13.0133 114.39 14.2518 114.39 16.0184V25.5198H109.572V6.45163H114.39V9.41C115.012 8.40051 115.82 7.61067 116.816 7.03582Z" fill="white"/>
<path d="M125.614 24.6087C124.146 23.7955 122.992 22.6412 122.155 21.1503C121.319 19.6594 120.898 17.9396 120.898 15.986C120.898 14.0325 121.328 12.3126 122.188 10.8217C123.048 9.33084 124.226 8.17647 125.716 7.36327C127.207 6.55007 128.871 6.13879 130.708 6.13879C132.544 6.13879 134.208 6.54539 135.699 7.36327C137.19 8.17647 138.368 9.33084 139.228 10.8217C140.088 12.3126 140.518 14.0325 140.518 15.986C140.518 17.9396 140.074 19.6594 139.195 21.1503C138.312 22.6412 137.12 23.7955 135.615 24.6087C134.11 25.4219 132.432 25.8285 130.572 25.8285C128.712 25.8285 127.086 25.4219 125.614 24.6087ZM133.031 20.9961C133.797 20.5708 134.414 19.9352 134.872 19.0846C135.33 18.234 135.559 17.2011 135.559 15.986C135.559 14.1727 135.082 12.7799 134.133 11.8032C133.18 10.8264 132.016 10.3403 130.638 10.3403C129.259 10.3403 128.109 10.8264 127.179 11.8032C126.249 12.7799 125.787 14.1727 125.787 15.986C125.787 17.7993 126.24 19.1921 127.147 20.1688C128.053 21.1456 129.194 21.6317 130.572 21.6317C131.446 21.6317 132.264 21.4214 133.031 20.9961Z" fill="white"/>
<path d="M150.069 7.02008C151.158 6.43588 152.401 6.14145 153.803 6.14145C155.434 6.14145 156.906 6.54338 158.229 7.34723C159.547 8.15108 160.594 9.29143 161.36 10.773C162.127 12.2545 162.515 13.9697 162.515 15.9186C162.515 17.8674 162.132 19.5967 161.36 21.0969C160.594 22.6018 159.547 23.7655 158.229 24.588C156.911 25.4152 155.434 25.8265 153.803 25.8265C152.401 25.8265 151.172 25.5414 150.106 24.9666C149.041 24.3917 148.172 23.672 147.508 22.798V32.4723L142.689 34.6035V6.4499H147.508V9.20264C148.129 8.32868 148.98 7.5996 150.074 7.01541L150.069 7.02008ZM156.883 12.9368C156.411 12.1002 155.794 11.4646 155.023 11.03C154.252 10.5954 153.425 10.3757 152.527 10.3757C151.63 10.3757 150.835 10.6 150.069 11.044C149.303 11.4927 148.681 12.1423 148.209 12.9882C147.737 13.8388 147.503 14.8343 147.503 15.984C147.503 17.1337 147.737 18.1292 148.209 18.9797C148.681 19.8303 149.298 20.48 150.069 20.9239C150.835 21.3726 151.658 21.5969 152.527 21.5969C153.397 21.5969 154.252 21.3679 155.023 20.9099C155.789 20.4519 156.411 19.7976 156.883 18.947C157.355 18.0964 157.589 17.0869 157.589 15.9186C157.589 14.7502 157.35 13.7781 156.883 12.9415V12.9368Z" fill="white"/>
<path d="M172.025 7.02008C173.114 6.43588 174.357 6.14145 175.759 6.14145C177.39 6.14145 178.862 6.54338 180.185 7.34723C181.503 8.15108 182.549 9.29143 183.316 10.773C184.082 12.2545 184.47 13.9697 184.47 15.9186C184.47 17.8674 184.082 19.5967 183.316 21.0969C182.549 22.6018 181.503 23.7655 180.185 24.588C178.867 25.4152 177.39 25.8265 175.759 25.8265C174.361 25.8265 173.128 25.5414 172.062 24.9666C170.996 24.3917 170.127 23.672 169.463 22.798V32.4723L164.645 34.6035V6.4499H169.463V9.20264C170.085 8.32868 170.936 7.5996 172.029 7.01541L172.025 7.02008ZM178.839 12.9368C178.367 12.1002 177.75 11.4646 176.979 11.03C176.212 10.5954 175.38 10.3757 174.483 10.3757C173.586 10.3757 172.791 10.6 172.025 11.044C171.258 11.4927 170.637 12.1423 170.165 12.9882C169.692 13.8388 169.459 14.8343 169.459 15.984C169.459 17.1337 169.692 18.1292 170.165 18.9797C170.637 19.8303 171.253 20.48 172.025 20.9239C172.791 21.3726 173.614 21.5969 174.483 21.5969C175.352 21.5969 176.207 21.3679 176.979 20.9099C177.745 20.4519 178.367 19.7976 178.839 18.947C179.311 18.0964 179.544 17.0869 179.544 15.9186C179.544 14.7502 179.306 13.7781 178.839 12.9415V12.9368Z" fill="white"/>
<path d="M204.186 17.4328H190.245C190.362 18.8115 190.843 19.8864 191.689 20.6669C192.54 21.4474 193.582 21.8353 194.821 21.8353C196.61 21.8353 197.882 21.0688 198.639 19.5312H203.836C203.284 21.3679 202.228 22.8728 200.667 24.0552C199.106 25.2377 197.19 25.8265 194.919 25.8265C193.082 25.8265 191.437 25.4199 189.979 24.6067C188.521 23.7935 187.385 22.6391 186.572 21.1483C185.758 19.6574 185.347 17.9375 185.347 15.984C185.347 14.0304 185.749 12.2778 186.553 10.787C187.357 9.29611 188.478 8.14641 189.927 7.34723C191.371 6.54338 193.035 6.14145 194.919 6.14145C196.802 6.14145 198.354 6.52936 199.789 7.30984C201.223 8.09033 202.336 9.19796 203.125 10.6281C203.915 12.0629 204.313 13.708 204.313 15.568C204.313 16.2551 204.266 16.8766 204.177 17.4281L204.186 17.4328ZM199.335 14.194C199.312 12.9555 198.863 11.9647 197.994 11.2169C197.12 10.4692 196.054 10.0953 194.792 10.0953C193.601 10.0953 192.596 10.4598 191.783 11.1796C190.969 11.904 190.469 12.9088 190.287 14.1893H199.34L199.335 14.194Z" fill="white"/>
<path d="M213.704 7.03582C214.705 6.46098 215.845 6.17589 217.13 6.17589V11.2374H215.859C214.345 11.2374 213.2 11.5926 212.433 12.3029C211.667 13.0133 211.279 14.2518 211.279 16.0184V25.5198H206.46V6.45163H211.279V9.41C211.9 8.40051 212.709 7.61067 213.704 7.03582Z" fill="white"/>
</svg>
