<svg width="129" height="45" viewBox="0 0 129 45" fill="none" xmlns="http://www.w3.org/2000/svg">
<rect y="0.189331" width="128.248" height="44.1859" rx="22.0929" fill="#F9FF84"/>
<path d="M31.6174 20.5035C31.6174 21.1642 31.4625 21.7682 31.1528 22.3154C30.8534 22.8523 30.3939 23.2859 29.7745 23.6163C29.1653 23.9364 28.4168 24.0964 27.5289 24.0964H26.0267V27.7822H22.9913V16.8641H27.5289C28.4065 16.8641 29.1498 17.0189 29.759 17.3287C30.3785 17.6384 30.8431 18.0669 31.1528 18.6141C31.4625 19.1613 31.6174 19.7911 31.6174 20.5035ZM27.2346 21.6804C28.0916 21.6804 28.52 21.2881 28.52 20.5035C28.52 19.7085 28.0916 19.311 27.2346 19.311H26.0267V21.6804H27.2346ZM35.8723 25.4592H39.2639V27.7822H32.8369V16.8641H35.8723V25.4592ZM47.3512 26.0013H43.4795L42.891 27.7822H39.7008L43.6808 16.8641H47.1809L51.1455 27.7822H47.9397L47.3512 26.0013ZM46.5924 23.6782L45.4154 20.1473L44.2539 23.6782H46.5924ZM62.0618 16.8641L58.2211 24.3132V27.7822H55.1702V24.3132L51.3295 16.8641H54.7985L56.7189 21.0765L58.6392 16.8641H62.0618ZM76.0708 27.7822H73.0354L68.9933 21.6804V27.7822H65.9579V16.8641H68.9933L73.0354 23.0433V16.8641H76.0708V27.7822ZM83.0344 27.8906C82.0122 27.8906 81.0727 27.6532 80.2158 27.1782C79.3588 26.693 78.6774 26.0271 78.1715 25.1805C77.6759 24.3235 77.4282 23.3582 77.4282 22.2844C77.4282 21.2107 77.6759 20.2505 78.1715 19.4039C78.6774 18.547 79.3588 17.881 80.2158 17.4061C81.0727 16.9312 82.0122 16.6937 83.0344 16.6937C84.0668 16.6937 85.0063 16.9312 85.8529 17.4061C86.7099 17.881 87.3861 18.547 87.8817 19.4039C88.3773 20.2505 88.6251 21.2107 88.6251 22.2844C88.6251 23.3582 88.3773 24.3235 87.8817 25.1805C87.3861 26.0271 86.7099 26.693 85.8529 27.1782C84.996 27.6532 84.0565 27.8906 83.0344 27.8906ZM83.0344 25.072C83.8087 25.072 84.4178 24.8191 84.8618 24.3132C85.3161 23.8073 85.5432 23.131 85.5432 22.2844C85.5432 21.4172 85.3161 20.7358 84.8618 20.2402C84.4178 19.7343 83.8087 19.4813 83.0344 19.4813C82.2497 19.4813 81.6354 19.7343 81.1914 20.2402C80.7475 20.7358 80.5255 21.4172 80.5255 22.2844C80.5255 23.1414 80.7475 23.8228 81.1914 24.3287C81.6354 24.8243 82.2497 25.072 83.0344 25.072ZM105.368 16.8641L102.689 27.7822H98.9564L97.4542 21.092L95.921 27.7822H92.1887L89.5405 16.8641H92.8237L94.0936 24.3287L95.8126 16.8641H99.1423L100.815 24.2667L102.085 16.8641H105.368Z" fill="#241818"/>
</svg>
