<svg width="75" height="26" viewBox="0 0 75 26" fill="none" xmlns="http://www.w3.org/2000/svg">
<rect width="74.7715" height="25.3286" rx="12.6643" fill="#FF8484"/>
<path d="M18.415 11.4249C18.415 11.8097 18.3248 12.1615 18.1444 12.4802C17.97 12.7929 17.7024 13.0455 17.3416 13.2379C16.9868 13.4243 16.5509 13.5175 16.0337 13.5175H15.1588V15.6643H13.3909V9.30519H16.0337C16.5449 9.30519 16.9778 9.39539 17.3326 9.57579C17.6934 9.75619 17.964 10.0057 18.1444 10.3244C18.3248 10.6432 18.415 11.01 18.415 11.4249ZM15.8624 12.1104C16.3615 12.1104 16.611 11.8819 16.611 11.4249C16.611 10.9619 16.3615 10.7303 15.8624 10.7303H15.1588V12.1104H15.8624ZM20.8932 14.3113H22.8686V15.6643H19.1253V9.30519H20.8932V14.3113ZM27.5789 14.627H25.3239L24.9812 15.6643H23.1231L25.4412 9.30519H27.4797L29.7889 15.6643H27.9217L27.5789 14.627ZM27.137 13.274L26.4514 11.2174L25.7749 13.274H27.137ZM36.1469 9.30519L33.91 13.6438V15.6643H32.133V13.6438L29.896 9.30519H31.9165L33.035 11.7586L34.1535 9.30519H36.1469ZM44.3062 15.6643H42.5383L40.1841 12.1104V15.6643H38.4162V9.30519H40.1841L42.5383 12.9042V9.30519H44.3062V15.6643ZM48.3621 15.7274C47.7668 15.7274 47.2195 15.5891 46.7204 15.3125C46.2213 15.0299 45.8244 14.642 45.5298 14.1489C45.2412 13.6498 45.0968 13.0876 45.0968 12.4622C45.0968 11.8368 45.2412 11.2776 45.5298 10.7845C45.8244 10.2854 46.2213 9.8975 46.7204 9.62089C47.2195 9.34427 47.7668 9.20596 48.3621 9.20596C48.9634 9.20596 49.5106 9.34427 50.0037 9.62089C50.5028 9.8975 50.8967 10.2854 51.1854 10.7845C51.474 11.2776 51.6183 11.8368 51.6183 12.4622C51.6183 13.0876 51.474 13.6498 51.1854 14.1489C50.8967 14.642 50.5028 15.0299 50.0037 15.3125C49.5046 15.5891 48.9574 15.7274 48.3621 15.7274ZM48.3621 14.0858C48.8131 14.0858 49.1679 13.9385 49.4264 13.6438C49.691 13.3492 49.8233 12.9553 49.8233 12.4622C49.8233 11.9571 49.691 11.5602 49.4264 11.2716C49.1679 10.9769 48.8131 10.8296 48.3621 10.8296C47.9051 10.8296 47.5473 10.9769 47.2887 11.2716C47.0301 11.5602 46.9008 11.9571 46.9008 12.4622C46.9008 12.9613 47.0301 13.3582 47.2887 13.6528C47.5473 13.9415 47.9051 14.0858 48.3621 14.0858ZM61.37 9.30519L59.8095 15.6643H57.6357L56.7607 11.7677L55.8677 15.6643H53.6939L52.1515 9.30519H54.0637L54.8034 13.6528L55.8046 9.30519H57.7439L58.7181 13.6168L59.4577 9.30519H61.37Z" fill="#241818"/>
</svg>
