<svg width="35" height="35" viewBox="0 0 35 35" fill="none" xmlns="http://www.w3.org/2000/svg">
<path d="M6.5625 1.64062C6.5625 0.731445 7.29395 0 8.20312 0H26.7969C27.7061 0 28.4375 0.731445 28.4375 1.64062C28.4375 2.5498 27.7061 3.28125 26.7969 3.28125H8.20312C7.29395 3.28125 6.5625 2.5498 6.5625 1.64062ZM3.28125 8.20312C3.28125 7.29395 4.0127 6.5625 4.92188 6.5625H30.0781C30.9873 6.5625 31.7188 7.29395 31.7188 8.20312C31.7188 9.1123 30.9873 9.84375 30.0781 9.84375H4.92188C4.0127 9.84375 3.28125 9.1123 3.28125 8.20312ZM0 17.5C0 15.0869 1.96191 13.125 4.375 13.125H30.625C33.0381 13.125 35 15.0869 35 17.5V30.625C35 33.0381 33.0381 35 30.625 35H4.375C1.96191 35 0 33.0381 0 30.625V17.5ZM6.5625 21.875C7.77246 21.875 8.75 20.8975 8.75 19.6875C8.75 18.4775 7.77246 17.5 6.5625 17.5C5.35254 17.5 4.375 18.4775 4.375 19.6875C4.375 20.8975 5.35254 21.875 6.5625 21.875ZM21.875 19.6875C21.3691 19.6875 20.8975 19.9199 20.583 20.3164L17.6709 24.0283L16.6592 22.5791C16.3516 22.1416 15.8525 21.8818 15.3125 21.8818C14.7725 21.8818 14.2734 22.1416 13.9658 22.5791L10.1377 28.0479C9.78906 28.5469 9.74121 29.2031 10.0283 29.7432C10.3154 30.2832 10.876 30.625 11.4844 30.625H27.8906C28.5195 30.625 29.0938 30.2695 29.3672 29.7021C29.6406 29.1348 29.5723 28.4648 29.1826 27.9727L23.167 20.3164C22.8525 19.9199 22.3809 19.6875 21.875 19.6875Z" fill="#1C1B1F"/>
</svg>
